<svg width="732" height="1344" viewBox="0 0 732 1344" class="keymap" xmlns="http://www.w3.org/2000/svg" xmlns:xlink="http://www.w3.org/1999/xlink">
<style>/* inherit to force styles through use tags */
svg path {
    fill: inherit;
}

/* font and background color specifications */
svg.keymap {
    font-family: SFMono-Regular,Consolas,Liberation Mono,Menlo,monospace;
    font-size: 14px;
    font-kerning: normal;
    text-rendering: optimizeLegibility;
    fill: #24292e;
}

/* default key styling */
rect.key {
    fill: #f6f8fa;
}

rect.key, rect.combo {
    stroke: #c9cccf;
    stroke-width: 1;
}

/* default key side styling, only used is draw_key_sides is set */
rect.side {
    filter: brightness(90%);
}

/* color accent for combo boxes */
rect.combo, rect.combo-separate {
    fill: #cdf;
}

/* color accent for held keys */
rect.held, rect.combo.held {
    fill: #fdd;
}

/* color accent for ghost (optional) keys */
rect.ghost, rect.combo.ghost {
    stroke-dasharray: 4, 4;
    stroke-width: 2;
}

text {
    text-anchor: middle;
    dominant-baseline: middle;
}

/* styling for layer labels */
text.label {
    font-weight: bold;
    text-anchor: start;
    stroke: white;
    stroke-width: 4;
    paint-order: stroke;
}

/* styling for optional footer */
text.footer {
    text-anchor: end;
    dominant-baseline: auto;
    stroke: white;
    stroke-width: 4;
    paint-order: stroke;
}

/* styling for combo tap, and key non-tap label text */
text.combo, text.hold, text.shifted, text.left, text.right, text.tl, text.tr, text.bl, text.br {
    font-size: 11px;
}

text.hold, text.bl, text.br {
    text-anchor: middle;
    dominant-baseline: auto;
}

text.shifted, text.tl, text.tr {
    text-anchor: middle;
    dominant-baseline: hanging;
}

text.left, text.tl, text.bl {
    text-anchor: start;
}

text.right, text.tr, text.br {
    text-anchor: end;
}

text.layer-activator {
    text-decoration: underline;
}

/* styling for hold/shifted label text in combo box */
text.combo.hold, text.combo.shifted, text.combo.left, text.combo.right {
    font-size: 8px;
}

/* lighter symbol for transparent keys */
text.trans {
    fill: #7b7e81;
}

/* styling for combo dendrons */
path.combo {
    stroke-width: 1;
    stroke: gray;
    fill: none;
}

/* Start Tabler Icons Cleanup */
/* cannot use height/width with glyphs */
.icon-tabler > path {
    fill: inherit;
    stroke: inherit;
    stroke-width: 2;
}
/* hide tabler's default box */
.icon-tabler > path[stroke="none"][fill="none"] {
    visibility: hidden;
}
/* End Tabler Icons Cleanup */


svg.keymap { background-color: #FFF; }</style>
<g transform="translate(30, 0)" class="layer-Base">
<text x="0" y="28" class="label" id="Base">Base:</text>
<g transform="translate(0, 56)">
<g transform="translate(28, 42)" class="key keypos-0">
<rect rx="6" ry="6" x="-26" y="-26" width="52" height="52" class="key side"/>
<rect rx="4" ry="4" x="-20" y="-24" width="40" height="40" class="key"/>
<text x="0" y="-4" class="key tap">Q</text>
</g>
<g transform="translate(84, 35)" class="key keypos-1">
<rect rx="6" ry="6" x="-26" y="-26" width="52" height="52" class="key side"/>
<rect rx="4" ry="4" x="-20" y="-24" width="40" height="40" class="key"/>
<text x="0" y="-4" class="key tap">W</text>
</g>
<g transform="translate(140, 28)" class="key keypos-2">
<rect rx="6" ry="6" x="-26" y="-26" width="52" height="52" class="key side"/>
<rect rx="4" ry="4" x="-20" y="-24" width="40" height="40" class="key"/>
<text x="0" y="-4" class="key tap">E</text>
</g>
<g transform="translate(196, 35)" class="key keypos-3">
<rect rx="6" ry="6" x="-26" y="-26" width="52" height="52" class="key side"/>
<rect rx="4" ry="4" x="-20" y="-24" width="40" height="40" class="key"/>
<text x="0" y="-4" class="key tap">R</text>
</g>
<g transform="translate(252, 42)" class="key keypos-4">
<rect rx="6" ry="6" x="-26" y="-26" width="52" height="52" class="key side"/>
<rect rx="4" ry="4" x="-20" y="-24" width="40" height="40" class="key"/>
<text x="0" y="-4" class="key tap">T</text>
</g>
<g transform="translate(420, 42)" class="key keypos-5">
<rect rx="6" ry="6" x="-26" y="-26" width="52" height="52" class="key side"/>
<rect rx="4" ry="4" x="-20" y="-24" width="40" height="40" class="key"/>
<text x="0" y="-4" class="key tap">Y</text>
</g>
<g transform="translate(476, 35)" class="key keypos-6">
<rect rx="6" ry="6" x="-26" y="-26" width="52" height="52" class="key side"/>
<rect rx="4" ry="4" x="-20" y="-24" width="40" height="40" class="key"/>
<text x="0" y="-4" class="key tap">U</text>
</g>
<g transform="translate(532, 28)" class="key keypos-7">
<rect rx="6" ry="6" x="-26" y="-26" width="52" height="52" class="key side"/>
<rect rx="4" ry="4" x="-20" y="-24" width="40" height="40" class="key"/>
<text x="0" y="-4" class="key tap">I</text>
</g>
<g transform="translate(588, 35)" class="key keypos-8">
<rect rx="6" ry="6" x="-26" y="-26" width="52" height="52" class="key side"/>
<rect rx="4" ry="4" x="-20" y="-24" width="40" height="40" class="key"/>
<text x="0" y="-4" class="key tap">O</text>
</g>
<g transform="translate(644, 42)" class="key keypos-9">
<rect rx="6" ry="6" x="-26" y="-26" width="52" height="52" class="key side"/>
<rect rx="4" ry="4" x="-20" y="-24" width="40" height="40" class="key"/>
<text x="0" y="-4" class="key tap">P</text>
</g>
<g transform="translate(28, 98)" class="key keypos-10">
<rect rx="6" ry="6" x="-26" y="-26" width="52" height="52" class="key side"/>
<rect rx="4" ry="4" x="-20" y="-24" width="40" height="40" class="key"/>
<text x="0" y="-4" class="key tap">A</text>
<text x="0" y="24" class="key hold">LGui</text>
</g>
<g transform="translate(84, 91)" class="key keypos-11">
<rect rx="6" ry="6" x="-26" y="-26" width="52" height="52" class="key side"/>
<rect rx="4" ry="4" x="-20" y="-24" width="40" height="40" class="key"/>
<text x="0" y="-4" class="key tap">S</text>
<text x="0" y="24" class="key hold">LAlt</text>
</g>
<g transform="translate(140, 84)" class="key keypos-12">
<rect rx="6" ry="6" x="-26" y="-26" width="52" height="52" class="key side"/>
<rect rx="4" ry="4" x="-20" y="-24" width="40" height="40" class="key"/>
<text x="0" y="-4" class="key tap">D</text>
<text x="0" y="24" class="key hold">LCtrl</text>
</g>
<g transform="translate(196, 91)" class="key keypos-13">
<rect rx="6" ry="6" x="-26" y="-26" width="52" height="52" class="key side"/>
<rect rx="4" ry="4" x="-20" y="-24" width="40" height="40" class="key"/>
<text x="0" y="-4" class="key tap">F</text>
<text x="0" y="24" class="key hold">LShift</text>
</g>
<g transform="translate(252, 98)" class="key keypos-14">
<rect rx="6" ry="6" x="-26" y="-26" width="52" height="52" class="key side"/>
<rect rx="4" ry="4" x="-20" y="-24" width="40" height="40" class="key"/>
<text x="0" y="-4" class="key tap">G</text>
<a href="#Nav">
<text x="0" y="24" class="key hold layer-activator">Nav</text>
</a></g>
<g transform="translate(420, 98)" class="key keypos-15">
<rect rx="6" ry="6" x="-26" y="-26" width="52" height="52" class="key side"/>
<rect rx="4" ry="4" x="-20" y="-24" width="40" height="40" class="key"/>
<text x="0" y="-4" class="key tap">H</text>
<a href="#Nav">
<text x="0" y="24" class="key hold layer-activator">Nav</text>
</a></g>
<g transform="translate(476, 91)" class="key keypos-16">
<rect rx="6" ry="6" x="-26" y="-26" width="52" height="52" class="key side"/>
<rect rx="4" ry="4" x="-20" y="-24" width="40" height="40" class="key"/>
<text x="0" y="-4" class="key tap">J</text>
<text x="0" y="24" class="key hold">RShift</text>
</g>
<g transform="translate(532, 84)" class="key keypos-17">
<rect rx="6" ry="6" x="-26" y="-26" width="52" height="52" class="key side"/>
<rect rx="4" ry="4" x="-20" y="-24" width="40" height="40" class="key"/>
<text x="0" y="-4" class="key tap">K</text>
<text x="0" y="24" class="key hold">RCtrl</text>
</g>
<g transform="translate(588, 91)" class="key keypos-18">
<rect rx="6" ry="6" x="-26" y="-26" width="52" height="52" class="key side"/>
<rect rx="4" ry="4" x="-20" y="-24" width="40" height="40" class="key"/>
<text x="0" y="-4" class="key tap">L</text>
<text x="0" y="24" class="key hold">RAlt</text>
</g>
<g transform="translate(644, 98)" class="key keypos-19">
<rect rx="6" ry="6" x="-26" y="-26" width="52" height="52" class="key side"/>
<rect rx="4" ry="4" x="-20" y="-24" width="40" height="40" class="key"/>
<text x="0" y="-4" class="key tap">;</text>
<text x="0" y="24" class="key hold">RGui</text>
<text x="0" y="-24" class="key shifted">:</text>
</g>
<g transform="translate(28, 154)" class="key keypos-20">
<rect rx="6" ry="6" x="-26" y="-26" width="52" height="52" class="key side"/>
<rect rx="4" ry="4" x="-20" y="-24" width="40" height="40" class="key"/>
<text x="0" y="-4" class="key tap">Z</text>
</g>
<g transform="translate(84, 147)" class="key keypos-21">
<rect rx="6" ry="6" x="-26" y="-26" width="52" height="52" class="key side"/>
<rect rx="4" ry="4" x="-20" y="-24" width="40" height="40" class="key"/>
<text x="0" y="-4" class="key tap">X</text>
</g>
<g transform="translate(140, 140)" class="key keypos-22">
<rect rx="6" ry="6" x="-26" y="-26" width="52" height="52" class="key side"/>
<rect rx="4" ry="4" x="-20" y="-24" width="40" height="40" class="key"/>
<text x="0" y="-4" class="key tap">C</text>
</g>
<g transform="translate(196, 147)" class="key keypos-23">
<rect rx="6" ry="6" x="-26" y="-26" width="52" height="52" class="key side"/>
<rect rx="4" ry="4" x="-20" y="-24" width="40" height="40" class="key"/>
<text x="0" y="-4" class="key tap">V</text>
</g>
<g transform="translate(252, 154)" class="key keypos-24">
<rect rx="6" ry="6" x="-26" y="-26" width="52" height="52" class="key side"/>
<rect rx="4" ry="4" x="-20" y="-24" width="40" height="40" class="key"/>
<text x="0" y="-4" class="key tap">B</text>
</g>
<g transform="translate(420, 154)" class="key keypos-25">
<rect rx="6" ry="6" x="-26" y="-26" width="52" height="52" class="key side"/>
<rect rx="4" ry="4" x="-20" y="-24" width="40" height="40" class="key"/>
<text x="0" y="-4" class="key tap">N</text>
</g>
<g transform="translate(476, 147)" class="key keypos-26">
<rect rx="6" ry="6" x="-26" y="-26" width="52" height="52" class="key side"/>
<rect rx="4" ry="4" x="-20" y="-24" width="40" height="40" class="key"/>
<text x="0" y="-4" class="key tap">M</text>
</g>
<g transform="translate(532, 140)" class="key keypos-27">
<rect rx="6" ry="6" x="-26" y="-26" width="52" height="52" class="key side"/>
<rect rx="4" ry="4" x="-20" y="-24" width="40" height="40" class="key"/>
<text x="0" y="-4" class="key tap">,</text>
<text x="0" y="-24" class="key shifted">&lt;</text>
</g>
<g transform="translate(588, 147)" class="key keypos-28">
<rect rx="6" ry="6" x="-26" y="-26" width="52" height="52" class="key side"/>
<rect rx="4" ry="4" x="-20" y="-24" width="40" height="40" class="key"/>
<text x="0" y="-4" class="key tap">.</text>
<text x="0" y="-24" class="key shifted">&gt;</text>
</g>
<g transform="translate(644, 154)" class="key keypos-29">
<rect rx="6" ry="6" x="-26" y="-26" width="52" height="52" class="key side"/>
<rect rx="4" ry="4" x="-20" y="-24" width="40" height="40" class="key"/>
<text x="0" y="-4" class="key tap">/</text>
<text x="0" y="-24" class="key shifted">?</text>
</g>
<g transform="translate(168, 210)" class="key keypos-30">
<rect rx="6" ry="6" x="-26" y="-26" width="52" height="52" class="key side"/>
<rect rx="4" ry="4" x="-20" y="-24" width="40" height="40" class="key"/>
<text x="0" y="-4" class="key tap">Tab</text>
</g>
<g transform="translate(224, 224)" class="key keypos-31">
<rect rx="6" ry="6" x="-26" y="-26" width="52" height="52" class="key side"/>
<rect rx="4" ry="4" x="-20" y="-24" width="40" height="40" class="key"/>
<text x="0" y="-4" class="key tap">Bksp</text>
<a href="#Number">
<text x="0" y="24" class="key hold layer-activator">Number</text>
</a></g>
<g transform="translate(280, 238)" class="key keypos-32">
<rect rx="6" ry="6" x="-26" y="-26" width="52" height="52" class="key side"/>
<rect rx="4" ry="4" x="-20" y="-24" width="40" height="40" class="key"/>
<text x="0" y="-4" class="key tap">Space</text>
<a href="#Symbol">
<text x="0" y="24" class="key hold layer-activator">Symbol</text>
</a></g>
<g transform="translate(392, 238)" class="key keypos-33">
<rect rx="6" ry="6" x="-26" y="-26" width="52" height="52" class="key side"/>
<rect rx="4" ry="4" x="-20" y="-24" width="40" height="40" class="key"/>
<text x="0" y="-4" class="key tap">Enter</text>
<a href="#Symbol">
<text x="0" y="24" class="key hold layer-activator">Symbol</text>
</a></g>
<g transform="translate(448, 224)" class="key keypos-34">
<rect rx="6" ry="6" x="-26" y="-26" width="52" height="52" class="key side"/>
<rect rx="4" ry="4" x="-20" y="-24" width="40" height="40" class="key"/>
<text x="0" y="-4" class="key tap">Del</text>
<a href="#Number">
<text x="0" y="24" class="key hold layer-activator">Number</text>
</a></g>
<g transform="translate(504, 210)" class="key keypos-35">
<rect rx="6" ry="6" x="-26" y="-26" width="52" height="52" class="key side"/>
<rect rx="4" ry="4" x="-20" y="-24" width="40" height="40" class="key"/>
<text x="0" y="-4" class="key tap">Tab</text>
</g>
<g class="combo combopos-0">
<rect rx="6" ry="6" x="434" y="82" width="28" height="26" class="combo"/>
<text x="448" y="94" class="combo tap">Home</text>
</g>
<g class="combo combopos-1">
<rect rx="6" ry="6" x="490" y="74" width="28" height="26" class="combo"/>
<text x="504" y="88" class="combo tap">Space</text>
</g>
<g class="combo combopos-2">
<rect rx="6" ry="6" x="546" y="74" width="28" height="26" class="combo"/>
<text x="560" y="88" class="combo tap">End</text>
</g>
</g>
</g>
<g transform="translate(30, 322)" class="layer-Symbol">
<text x="0" y="28" class="label" id="Symbol">Symbol:</text>
<g transform="translate(0, 56)">
<g transform="translate(28, 42)" class="key keypos-0">
<rect rx="6" ry="6" x="-26" y="-26" width="52" height="52" class="key side"/>
<rect rx="4" ry="4" x="-20" y="-24" width="40" height="40" class="key"/>
<text x="0" y="-4" class="key tap">|</text>
</g>
<g transform="translate(84, 35)" class="key keypos-1">
<rect rx="6" ry="6" x="-26" y="-26" width="52" height="52" class="key side"/>
<rect rx="4" ry="4" x="-20" y="-24" width="40" height="40" class="key"/>
<text x="0" y="-4" class="key tap">&#x27;</text>
<text x="0" y="-24" class="key shifted">&quot;</text>
</g>
<g transform="translate(140, 28)" class="key keypos-2">
<rect rx="6" ry="6" x="-26" y="-26" width="52" height="52" class="key side"/>
<rect rx="4" ry="4" x="-20" y="-24" width="40" height="40" class="key"/>
<text x="0" y="-4" class="key tap">%</text>
</g>
<g transform="translate(196, 35)" class="key keypos-3">
<rect rx="6" ry="6" x="-26" y="-26" width="52" height="52" class="key side"/>
<rect rx="4" ry="4" x="-20" y="-24" width="40" height="40" class="key"/>
<text x="0" y="-4" class="key tap">$</text>
</g>
<g transform="translate(252, 42)" class="key keypos-4">
<rect rx="6" ry="6" x="-26" y="-26" width="52" height="52" class="key side"/>
<rect rx="4" ry="4" x="-20" y="-24" width="40" height="40" class="key"/>
<text x="0" y="-4" class="key tap">!</text>
</g>
<g transform="translate(420, 42)" class="key keypos-5">
<rect rx="6" ry="6" x="-26" y="-26" width="52" height="52" class="key side"/>
<rect rx="4" ry="4" x="-20" y="-24" width="40" height="40" class="key"/>
<text x="0" y="-4" class="key tap">+</text>
</g>
<g transform="translate(476, 35)" class="key keypos-6">
<rect rx="6" ry="6" x="-26" y="-26" width="52" height="52" class="key side"/>
<rect rx="4" ry="4" x="-20" y="-24" width="40" height="40" class="key"/>
<text x="0" y="-4" class="key tap">{</text>
</g>
<g transform="translate(532, 28)" class="key keypos-7">
<rect rx="6" ry="6" x="-26" y="-26" width="52" height="52" class="key side"/>
<rect rx="4" ry="4" x="-20" y="-24" width="40" height="40" class="key"/>
<text x="0" y="-4" class="key tap">}</text>
</g>
<g transform="translate(588, 35)" class="key keypos-8">
<rect rx="6" ry="6" x="-26" y="-26" width="52" height="52" class="key side"/>
<rect rx="4" ry="4" x="-20" y="-24" width="40" height="40" class="key"/>
<text x="0" y="-4" class="key tap">?</text>
</g>
<g transform="translate(644, 42)" class="key keypos-9">
<rect rx="6" ry="6" x="-26" y="-26" width="52" height="52" class="key side"/>
<rect rx="4" ry="4" x="-20" y="-24" width="40" height="40" class="key"/>
<text x="0" y="-4" class="key tap">*</text>
</g>
<g transform="translate(28, 98)" class="key keypos-10">
<rect rx="6" ry="6" x="-26" y="-26" width="52" height="52" class="key side"/>
<rect rx="4" ry="4" x="-20" y="-24" width="40" height="40" class="key"/>
<text x="0" y="-4" class="key tap">#</text>
<text x="0" y="24" class="key hold">LGui</text>
</g>
<g transform="translate(84, 91)" class="key keypos-11">
<rect rx="6" ry="6" x="-26" y="-26" width="52" height="52" class="key side"/>
<rect rx="4" ry="4" x="-20" y="-24" width="40" height="40" class="key"/>
<text x="0" y="-4" class="key tap">&quot;</text>
<text x="0" y="24" class="key hold">LAlt</text>
</g>
<g transform="translate(140, 84)" class="key keypos-12">
<rect rx="6" ry="6" x="-26" y="-26" width="52" height="52" class="key side"/>
<rect rx="4" ry="4" x="-20" y="-24" width="40" height="40" class="key"/>
<text x="0" y="-4" class="key tap">&lt;</text>
<text x="0" y="24" class="key hold">LCtrl</text>
</g>
<g transform="translate(196, 91)" class="key keypos-13">
<rect rx="6" ry="6" x="-26" y="-26" width="52" height="52" class="key side"/>
<rect rx="4" ry="4" x="-20" y="-24" width="40" height="40" class="key"/>
<text x="0" y="-4" class="key tap">=</text>
<text x="0" y="24" class="key hold">LShift</text>
</g>
<g transform="translate(252, 98)" class="key keypos-14">
<rect rx="6" ry="6" x="-26" y="-26" width="52" height="52" class="key side"/>
<rect rx="4" ry="4" x="-20" y="-24" width="40" height="40" class="key"/>
<text x="0" y="-4" class="key tap">&gt;</text>
</g>
<g transform="translate(420, 98)" class="key keypos-15">
<rect rx="6" ry="6" x="-26" y="-26" width="52" height="52" class="key side"/>
<rect rx="4" ry="4" x="-20" y="-24" width="40" height="40" class="key"/>
<text x="0" y="-4" class="key tap">-</text>
</g>
<g transform="translate(476, 91)" class="key keypos-16">
<rect rx="6" ry="6" x="-26" y="-26" width="52" height="52" class="key side"/>
<rect rx="4" ry="4" x="-20" y="-24" width="40" height="40" class="key"/>
<text x="0" y="-4" class="key tap">(</text>
<text x="0" y="24" class="key hold">RShift</text>
</g>
<g transform="translate(532, 84)" class="key keypos-17">
<rect rx="6" ry="6" x="-26" y="-26" width="52" height="52" class="key side"/>
<rect rx="4" ry="4" x="-20" y="-24" width="40" height="40" class="key"/>
<text x="0" y="-4" class="key tap">)</text>
<text x="0" y="24" class="key hold">RCtrl</text>
</g>
<g transform="translate(588, 91)" class="key keypos-18">
<rect rx="6" ry="6" x="-26" y="-26" width="52" height="52" class="key side"/>
<rect rx="4" ry="4" x="-20" y="-24" width="40" height="40" class="key"/>
<text x="0" y="-4" class="key tap">_</text>
<text x="0" y="24" class="key hold">RAlt</text>
</g>
<g transform="translate(644, 98)" class="key keypos-19">
<rect rx="6" ry="6" x="-26" y="-26" width="52" height="52" class="key side"/>
<rect rx="4" ry="4" x="-20" y="-24" width="40" height="40" class="key"/>
<text x="0" y="-4" class="key tap">:</text>
<text x="0" y="24" class="key hold">RGui</text>
</g>
<g transform="translate(28, 154)" class="key keypos-20">
<rect rx="6" ry="6" x="-26" y="-26" width="52" height="52" class="key side"/>
<rect rx="4" ry="4" x="-20" y="-24" width="40" height="40" class="key"/>
<text x="0" y="-4" class="key tap">~</text>
</g>
<g transform="translate(84, 147)" class="key keypos-21">
<rect rx="6" ry="6" x="-26" y="-26" width="52" height="52" class="key side"/>
<rect rx="4" ry="4" x="-20" y="-24" width="40" height="40" class="key"/>
<text x="0" y="-4" class="key tap">`</text>
<text x="0" y="-24" class="key shifted">~</text>
</g>
<g transform="translate(140, 140)" class="key keypos-22">
<rect rx="6" ry="6" x="-26" y="-26" width="52" height="52" class="key side"/>
<rect rx="4" ry="4" x="-20" y="-24" width="40" height="40" class="key"/>
<text x="0" y="-4" class="key tap">&amp;</text>
</g>
<g transform="translate(196, 147)" class="key keypos-23">
<rect rx="6" ry="6" x="-26" y="-26" width="52" height="52" class="key side"/>
<rect rx="4" ry="4" x="-20" y="-24" width="40" height="40" class="key"/>
<text x="0" y="-4" class="key tap">^</text>
</g>
<g transform="translate(252, 154)" class="key keypos-24">
<rect rx="6" ry="6" x="-26" y="-26" width="52" height="52" class="key side"/>
<rect rx="4" ry="4" x="-20" y="-24" width="40" height="40" class="key"/>
<text x="0" y="-4" class="key tap">\</text>
<text x="0" y="-24" class="key shifted">|</text>
</g>
<g transform="translate(420, 154)" class="key keypos-25">
<rect rx="6" ry="6" x="-26" y="-26" width="52" height="52" class="key side"/>
<rect rx="4" ry="4" x="-20" y="-24" width="40" height="40" class="key"/>
<text x="0" y="-4" class="key tap">@</text>
</g>
<g transform="translate(476, 147)" class="key keypos-26">
<rect rx="6" ry="6" x="-26" y="-26" width="52" height="52" class="key side"/>
<rect rx="4" ry="4" x="-20" y="-24" width="40" height="40" class="key"/>
<text x="0" y="-4" class="key tap">[</text>
<text x="0" y="-24" class="key shifted">{</text>
</g>
<g transform="translate(532, 140)" class="key keypos-27">
<rect rx="6" ry="6" x="-26" y="-26" width="52" height="52" class="key side"/>
<rect rx="4" ry="4" x="-20" y="-24" width="40" height="40" class="key"/>
<text x="0" y="-4" class="key tap">]</text>
<text x="0" y="-24" class="key shifted">{</text>
</g>
<g transform="translate(588, 147)" class="key keypos-28">
<rect rx="6" ry="6" x="-26" y="-26" width="52" height="52" class="key side"/>
<rect rx="4" ry="4" x="-20" y="-24" width="40" height="40" class="key"/>
<text x="0" y="-4" class="key tap">.</text>
</g>
<g transform="translate(644, 154)" class="key keypos-29">
<rect rx="6" ry="6" x="-26" y="-26" width="52" height="52" class="key side"/>
<rect rx="4" ry="4" x="-20" y="-24" width="40" height="40" class="key"/>
<text x="0" y="-4" class="key tap">/</text>
</g>
<g transform="translate(168, 210)" class="key keypos-30">
<rect rx="6" ry="6" x="-26" y="-26" width="52" height="52" class="key side"/>
<rect rx="4" ry="4" x="-20" y="-24" width="40" height="40" class="key"/>
<text x="0" y="-4" class="key tap">▽</text>
</g>
<g transform="translate(224, 224)" class="key keypos-31">
<rect rx="6" ry="6" x="-26" y="-26" width="52" height="52" class="key side"/>
<rect rx="4" ry="4" x="-20" y="-24" width="40" height="40" class="key"/>
<text x="0" y="-4" class="key tap">▽</text>
</g>
<g transform="translate(280, 238)" class="key keypos-32">
<rect rx="6" ry="6" x="-26" y="-26" width="52" height="52" class="key side"/>
<rect rx="4" ry="4" x="-20" y="-24" width="40" height="40" class="key"/>
<text x="0" y="-4" class="key tap">▽</text>
</g>
<g transform="translate(392, 238)" class="key keypos-33">
<rect rx="6" ry="6" x="-26" y="-26" width="52" height="52" class="key side"/>
<rect rx="4" ry="4" x="-20" y="-24" width="40" height="40" class="key"/>
<text x="0" y="-4" class="key tap">▽</text>
</g>
<g transform="translate(448, 224)" class="key keypos-34">
<rect rx="6" ry="6" x="-26" y="-26" width="52" height="52" class="key side"/>
<rect rx="4" ry="4" x="-20" y="-24" width="40" height="40" class="key"/>
<text x="0" y="-4" class="key tap">▽</text>
</g>
<g transform="translate(504, 210)" class="key keypos-35">
<rect rx="6" ry="6" x="-26" y="-26" width="52" height="52" class="key side"/>
<rect rx="4" ry="4" x="-20" y="-24" width="40" height="40" class="key"/>
<text x="0" y="-4" class="key tap">▽</text>
</g>
</g>
</g>
<g transform="translate(30, 644)" class="layer-Number">
<text x="0" y="28" class="label" id="Number">Number:</text>
<g transform="translate(0, 56)">
<g transform="translate(28, 42)" class="key keypos-0">
<rect rx="6" ry="6" x="-26" y="-26" width="52" height="52" class="key side"/>
<rect rx="4" ry="4" x="-20" y="-24" width="40" height="40" class="key"/>
<text x="0" y="-4" class="key tap">F1</text>
</g>
<g transform="translate(84, 35)" class="key keypos-1">
<rect rx="6" ry="6" x="-26" y="-26" width="52" height="52" class="key side"/>
<rect rx="4" ry="4" x="-20" y="-24" width="40" height="40" class="key"/>
<text x="0" y="-4" class="key tap">F2</text>
</g>
<g transform="translate(140, 28)" class="key keypos-2">
<rect rx="6" ry="6" x="-26" y="-26" width="52" height="52" class="key side"/>
<rect rx="4" ry="4" x="-20" y="-24" width="40" height="40" class="key"/>
<text x="0" y="-4" class="key tap">F3</text>
</g>
<g transform="translate(196, 35)" class="key keypos-3">
<rect rx="6" ry="6" x="-26" y="-26" width="52" height="52" class="key side"/>
<rect rx="4" ry="4" x="-20" y="-24" width="40" height="40" class="key"/>
<text x="0" y="-4" class="key tap">F4</text>
</g>
<g transform="translate(252, 42)" class="key keypos-4">
<rect rx="6" ry="6" x="-26" y="-26" width="52" height="52" class="key side"/>
<rect rx="4" ry="4" x="-20" y="-24" width="40" height="40" class="key"/>
<text x="0" y="-4" class="key tap">Home</text>
</g>
<g transform="translate(420, 42)" class="key keypos-5">
<rect rx="6" ry="6" x="-26" y="-26" width="52" height="52" class="key side"/>
<rect rx="4" ry="4" x="-20" y="-24" width="40" height="40" class="key"/>
<text x="0" y="-4" class="key tap">+</text>
</g>
<g transform="translate(476, 35)" class="key keypos-6">
<rect rx="6" ry="6" x="-26" y="-26" width="52" height="52" class="key side"/>
<rect rx="4" ry="4" x="-20" y="-24" width="40" height="40" class="key"/>
<text x="0" y="-4" class="key tap">7</text>
</g>
<g transform="translate(532, 28)" class="key keypos-7">
<rect rx="6" ry="6" x="-26" y="-26" width="52" height="52" class="key side"/>
<rect rx="4" ry="4" x="-20" y="-24" width="40" height="40" class="key"/>
<text x="0" y="-4" class="key tap">8</text>
</g>
<g transform="translate(588, 35)" class="key keypos-8">
<rect rx="6" ry="6" x="-26" y="-26" width="52" height="52" class="key side"/>
<rect rx="4" ry="4" x="-20" y="-24" width="40" height="40" class="key"/>
<text x="0" y="-4" class="key tap">9</text>
</g>
<g transform="translate(644, 42)" class="key keypos-9">
<rect rx="6" ry="6" x="-26" y="-26" width="52" height="52" class="key side"/>
<rect rx="4" ry="4" x="-20" y="-24" width="40" height="40" class="key"/>
<text x="0" y="-4" class="key tap">*</text>
</g>
<g transform="translate(28, 98)" class="key keypos-10">
<rect rx="6" ry="6" x="-26" y="-26" width="52" height="52" class="key side"/>
<rect rx="4" ry="4" x="-20" y="-24" width="40" height="40" class="key"/>
<text x="0" y="-4" class="key tap">F5</text>
<text x="0" y="24" class="key hold">LGui</text>
</g>
<g transform="translate(84, 91)" class="key keypos-11">
<rect rx="6" ry="6" x="-26" y="-26" width="52" height="52" class="key side"/>
<rect rx="4" ry="4" x="-20" y="-24" width="40" height="40" class="key"/>
<text x="0" y="-4" class="key tap">F6</text>
<text x="0" y="24" class="key hold">LAlt</text>
</g>
<g transform="translate(140, 84)" class="key keypos-12">
<rect rx="6" ry="6" x="-26" y="-26" width="52" height="52" class="key side"/>
<rect rx="4" ry="4" x="-20" y="-24" width="40" height="40" class="key"/>
<text x="0" y="-4" class="key tap">F7</text>
<text x="0" y="24" class="key hold">LCtrl</text>
</g>
<g transform="translate(196, 91)" class="key keypos-13">
<rect rx="6" ry="6" x="-26" y="-26" width="52" height="52" class="key side"/>
<rect rx="4" ry="4" x="-20" y="-24" width="40" height="40" class="key"/>
<text x="0" y="-4" class="key tap">F8</text>
<text x="0" y="24" class="key hold">LShift</text>
</g>
<g transform="translate(252, 98)" class="key keypos-14">
<rect rx="6" ry="6" x="-26" y="-26" width="52" height="52" class="key side"/>
<rect rx="4" ry="4" x="-20" y="-24" width="40" height="40" class="key"/>
<text x="0" y="-4" class="key tap">End</text>
</g>
<g transform="translate(420, 98)" class="key keypos-15">
<rect rx="6" ry="6" x="-26" y="-26" width="52" height="52" class="key side"/>
<rect rx="4" ry="4" x="-20" y="-24" width="40" height="40" class="key"/>
<text x="0" y="-4" class="key tap">-</text>
</g>
<g transform="translate(476, 91)" class="key keypos-16">
<rect rx="6" ry="6" x="-26" y="-26" width="52" height="52" class="key side"/>
<rect rx="4" ry="4" x="-20" y="-24" width="40" height="40" class="key"/>
<text x="0" y="-4" class="key tap">4</text>
</g>
<g transform="translate(532, 84)" class="key keypos-17">
<rect rx="6" ry="6" x="-26" y="-26" width="52" height="52" class="key side"/>
<rect rx="4" ry="4" x="-20" y="-24" width="40" height="40" class="key"/>
<text x="0" y="-4" class="key tap">5</text>
</g>
<g transform="translate(588, 91)" class="key keypos-18">
<rect rx="6" ry="6" x="-26" y="-26" width="52" height="52" class="key side"/>
<rect rx="4" ry="4" x="-20" y="-24" width="40" height="40" class="key"/>
<text x="0" y="-4" class="key tap">6</text>
</g>
<g transform="translate(644, 98)" class="key keypos-19">
<rect rx="6" ry="6" x="-26" y="-26" width="52" height="52" class="key side"/>
<rect rx="4" ry="4" x="-20" y="-24" width="40" height="40" class="key"/>
<text x="0" y="-4" class="key tap">0</text>
</g>
<g transform="translate(28, 154)" class="key keypos-20">
<rect rx="6" ry="6" x="-26" y="-26" width="52" height="52" class="key side"/>
<rect rx="4" ry="4" x="-20" y="-24" width="40" height="40" class="key"/>
<text x="0" y="-4" class="key tap">F9</text>
</g>
<g transform="translate(84, 147)" class="key keypos-21">
<rect rx="6" ry="6" x="-26" y="-26" width="52" height="52" class="key side"/>
<rect rx="4" ry="4" x="-20" y="-24" width="40" height="40" class="key"/>
<text x="0" y="-4" class="key tap">F10</text>
</g>
<g transform="translate(140, 140)" class="key keypos-22">
<rect rx="6" ry="6" x="-26" y="-26" width="52" height="52" class="key side"/>
<rect rx="4" ry="4" x="-20" y="-24" width="40" height="40" class="key"/>
<text x="0" y="-4" class="key tap">F11</text>
</g>
<g transform="translate(196, 147)" class="key keypos-23">
<rect rx="6" ry="6" x="-26" y="-26" width="52" height="52" class="key side"/>
<rect rx="4" ry="4" x="-20" y="-24" width="40" height="40" class="key"/>
<text x="0" y="-4" class="key tap">F12</text>
</g>
<g transform="translate(252, 154)" class="key keypos-24">
<rect rx="6" ry="6" x="-26" y="-26" width="52" height="52" class="key side"/>
<rect rx="4" ry="4" x="-20" y="-24" width="40" height="40" class="key"/>
<text x="0" y="-4" class="key tap">🧮</text>
</g>
<g transform="translate(420, 154)" class="key keypos-25">
<rect rx="6" ry="6" x="-26" y="-26" width="52" height="52" class="key side"/>
<rect rx="4" ry="4" x="-20" y="-24" width="40" height="40" class="key"/>
<text x="0" y="-4" class="key tap">:</text>
</g>
<g transform="translate(476, 147)" class="key keypos-26">
<rect rx="6" ry="6" x="-26" y="-26" width="52" height="52" class="key side"/>
<rect rx="4" ry="4" x="-20" y="-24" width="40" height="40" class="key"/>
<text x="0" y="-4" class="key tap">1</text>
</g>
<g transform="translate(532, 140)" class="key keypos-27">
<rect rx="6" ry="6" x="-26" y="-26" width="52" height="52" class="key side"/>
<rect rx="4" ry="4" x="-20" y="-24" width="40" height="40" class="key"/>
<text x="0" y="-4" class="key tap">2</text>
</g>
<g transform="translate(588, 147)" class="key keypos-28">
<rect rx="6" ry="6" x="-26" y="-26" width="52" height="52" class="key side"/>
<rect rx="4" ry="4" x="-20" y="-24" width="40" height="40" class="key"/>
<text x="0" y="-4" class="key tap">3</text>
</g>
<g transform="translate(644, 154)" class="key keypos-29">
<rect rx="6" ry="6" x="-26" y="-26" width="52" height="52" class="key side"/>
<rect rx="4" ry="4" x="-20" y="-24" width="40" height="40" class="key"/>
<text x="0" y="-4" class="key tap">/</text>
</g>
<g transform="translate(168, 210)" class="key keypos-30">
<rect rx="6" ry="6" x="-26" y="-26" width="52" height="52" class="key side"/>
<rect rx="4" ry="4" x="-20" y="-24" width="40" height="40" class="key"/>
<text x="0" y="-4" class="key tap">▽</text>
</g>
<g transform="translate(224, 224)" class="key keypos-31">
<rect rx="6" ry="6" x="-26" y="-26" width="52" height="52" class="key side"/>
<rect rx="4" ry="4" x="-20" y="-24" width="40" height="40" class="key"/>
<text x="0" y="-4" class="key tap">▽</text>
</g>
<g transform="translate(280, 238)" class="key keypos-32">
<rect rx="6" ry="6" x="-26" y="-26" width="52" height="52" class="key side"/>
<rect rx="4" ry="4" x="-20" y="-24" width="40" height="40" class="key"/>
<text x="0" y="-4" class="key tap">▽</text>
</g>
<g transform="translate(392, 238)" class="key keypos-33">
<rect rx="6" ry="6" x="-26" y="-26" width="52" height="52" class="key side"/>
<rect rx="4" ry="4" x="-20" y="-24" width="40" height="40" class="key"/>
<text x="0" y="-4" class="key tap">.</text>
</g>
<g transform="translate(448, 224)" class="key keypos-34">
<rect rx="6" ry="6" x="-26" y="-26" width="52" height="52" class="key side"/>
<rect rx="4" ry="4" x="-20" y="-24" width="40" height="40" class="key"/>
<text x="0" y="-4" class="key tap">0</text>
</g>
<g transform="translate(504, 210)" class="key keypos-35">
<rect rx="6" ry="6" x="-26" y="-26" width="52" height="52" class="key side"/>
<rect rx="4" ry="4" x="-20" y="-24" width="40" height="40" class="key"/>
<text x="0" y="-4" class="key tap">.</text>
</g>
</g>
</g>
<g transform="translate(30, 966)" class="layer-Nav">
<text x="0" y="28" class="label" id="Nav">Nav:</text>
<g transform="translate(0, 56)">
<g transform="translate(28, 42)" class="key keypos-0">
<rect rx="6" ry="6" x="-26" y="-26" width="52" height="52" class="key side"/>
<rect rx="4" ry="4" x="-20" y="-24" width="40" height="40" class="key"/>
<text x="0" y="-4" class="key tap">🔇</text>
</g>
<g transform="translate(84, 35)" class="key keypos-1">
<rect rx="6" ry="6" x="-26" y="-26" width="52" height="52" class="key side"/>
<rect rx="4" ry="4" x="-20" y="-24" width="40" height="40" class="key"/>
<text x="0" y="-4" class="key tap">🔉</text>
</g>
<g transform="translate(140, 28)" class="key keypos-2">
<rect rx="6" ry="6" x="-26" y="-26" width="52" height="52" class="key side"/>
<rect rx="4" ry="4" x="-20" y="-24" width="40" height="40" class="key"/>
<text x="0" y="-4" class="key tap">🔊</text>
</g>
<g transform="translate(196, 35)" class="key keypos-3">
<rect rx="6" ry="6" x="-26" y="-26" width="52" height="52" class="key side"/>
<rect rx="4" ry="4" x="-20" y="-24" width="40" height="40" class="key"/>
<text x="0" y="-4" class="key tap">⏯</text>
</g>
<g transform="translate(252, 42)" class="key keypos-4">
<rect rx="6" ry="6" x="-26" y="-26" width="52" height="52" class="key side"/>
<rect rx="4" ry="4" x="-20" y="-24" width="40" height="40" class="key"/>
</g>
<g transform="translate(420, 42)" class="key keypos-5">
<rect rx="6" ry="6" x="-26" y="-26" width="52" height="52" class="key side"/>
<rect rx="4" ry="4" x="-20" y="-24" width="40" height="40" class="key"/>
</g>
<g transform="translate(476, 35)" class="key keypos-6">
<rect rx="6" ry="6" x="-26" y="-26" width="52" height="52" class="key side"/>
<rect rx="4" ry="4" x="-20" y="-24" width="40" height="40" class="key"/>
<text x="0" y="-4" class="key tap">Y</text>
<text x="0" y="-24" class="key shifted">LSFT+</text>
</g>
<g transform="translate(532, 28)" class="key keypos-7">
<rect rx="6" ry="6" x="-26" y="-26" width="52" height="52" class="key side"/>
<rect rx="4" ry="4" x="-20" y="-24" width="40" height="40" class="key"/>
<text x="0" y="-4" class="key tap">END</text>
</g>
<g transform="translate(588, 35)" class="key keypos-8">
<rect rx="6" ry="6" x="-26" y="-26" width="52" height="52" class="key side"/>
<rect rx="4" ry="4" x="-20" y="-24" width="40" height="40" class="key"/>
<text x="0" y="-4" class="key tap">I</text>
<text x="0" y="-24" class="key shifted">LSFT+</text>
</g>
<g transform="translate(644, 42)" class="key keypos-9">
<rect rx="6" ry="6" x="-26" y="-26" width="52" height="52" class="key side"/>
<rect rx="4" ry="4" x="-20" y="-24" width="40" height="40" class="key"/>
</g>
<g transform="translate(28, 98)" class="key keypos-10">
<rect rx="6" ry="6" x="-26" y="-26" width="52" height="52" class="key side"/>
<rect rx="4" ry="4" x="-20" y="-24" width="40" height="40" class="key"/>
<text x="0" y="-4" class="key tap">Home</text>
<text x="0" y="24" class="key hold">LGui</text>
</g>
<g transform="translate(84, 91)" class="key keypos-11">
<rect rx="6" ry="6" x="-26" y="-26" width="52" height="52" class="key side"/>
<rect rx="4" ry="4" x="-20" y="-24" width="40" height="40" class="key"/>
<text x="0" y="-4" class="key tap">←</text>
<text x="0" y="24" class="key hold">LAlt</text>
</g>
<g transform="translate(140, 84)" class="key keypos-12">
<rect rx="6" ry="6" x="-26" y="-26" width="52" height="52" class="key side"/>
<rect rx="4" ry="4" x="-20" y="-24" width="40" height="40" class="key"/>
<text x="0" y="-4" class="key tap">↓</text>
<text x="0" y="24" class="key hold">LCtrl</text>
</g>
<g transform="translate(196, 91)" class="key keypos-13">
<rect rx="6" ry="6" x="-26" y="-26" width="52" height="52" class="key side"/>
<rect rx="4" ry="4" x="-20" y="-24" width="40" height="40" class="key"/>
<text x="0" y="-4" class="key tap">→</text>
<text x="0" y="24" class="key hold">LShift</text>
</g>
<g transform="translate(252, 98)" class="key keypos-14">
<rect rx="6" ry="6" x="-26" y="-26" width="52" height="52" class="key side"/>
<rect rx="4" ry="4" x="-20" y="-24" width="40" height="40" class="key"/>
<text x="0" y="-4" class="key tap">End</text>
</g>
<g transform="translate(420, 98)" class="key keypos-15">
<rect rx="6" ry="6" x="-26" y="-26" width="52" height="52" class="key side"/>
<rect rx="4" ry="4" x="-20" y="-24" width="40" height="40" class="key"/>
<text x="0" y="-4" class="key tap">Home</text>
</g>
<g transform="translate(476, 91)" class="key keypos-16">
<rect rx="6" ry="6" x="-26" y="-26" width="52" height="52" class="key side"/>
<rect rx="4" ry="4" x="-20" y="-24" width="40" height="40" class="key"/>
<text x="0" y="-4" class="key tap">←</text>
<text x="0" y="24" class="key hold">RShift</text>
</g>
<g transform="translate(532, 84)" class="key keypos-17">
<rect rx="6" ry="6" x="-26" y="-26" width="52" height="52" class="key side"/>
<rect rx="4" ry="4" x="-20" y="-24" width="40" height="40" class="key"/>
<text x="0" y="-4" class="key tap">↓</text>
<text x="0" y="24" class="key hold">RCtrl</text>
</g>
<g transform="translate(588, 91)" class="key keypos-18">
<rect rx="6" ry="6" x="-26" y="-26" width="52" height="52" class="key side"/>
<rect rx="4" ry="4" x="-20" y="-24" width="40" height="40" class="key"/>
<text x="0" y="-4" class="key tap">↑</text>
<text x="0" y="24" class="key hold">RAlt</text>
</g>
<g transform="translate(644, 98)" class="key keypos-19">
<rect rx="6" ry="6" x="-26" y="-26" width="52" height="52" class="key side"/>
<rect rx="4" ry="4" x="-20" y="-24" width="40" height="40" class="key"/>
<text x="0" y="-4" class="key tap">→</text>
<text x="0" y="24" class="key hold">RGui</text>
</g>
<g transform="translate(28, 154)" class="key keypos-20">
<rect rx="6" ry="6" x="-26" y="-26" width="52" height="52" class="key side"/>
<rect rx="4" ry="4" x="-20" y="-24" width="40" height="40" class="key"/>
</g>
<g transform="translate(84, 147)" class="key keypos-21">
<rect rx="6" ry="6" x="-26" y="-26" width="52" height="52" class="key side"/>
<rect rx="4" ry="4" x="-20" y="-24" width="40" height="40" class="key"/>
</g>
<g transform="translate(140, 140)" class="key keypos-22">
<rect rx="6" ry="6" x="-26" y="-26" width="52" height="52" class="key side"/>
<rect rx="4" ry="4" x="-20" y="-24" width="40" height="40" class="key"/>
<text x="0" y="-4" class="key tap">⏮</text>
</g>
<g transform="translate(196, 147)" class="key keypos-23">
<rect rx="6" ry="6" x="-26" y="-26" width="52" height="52" class="key side"/>
<rect rx="4" ry="4" x="-20" y="-24" width="40" height="40" class="key"/>
<text x="0" y="-4" class="key tap">⏭</text>
</g>
<g transform="translate(252, 154)" class="key keypos-24">
<rect rx="6" ry="6" x="-26" y="-26" width="52" height="52" class="key side"/>
<rect rx="4" ry="4" x="-20" y="-24" width="40" height="40" class="key"/>
</g>
<g transform="translate(420, 154)" class="key keypos-25">
<rect rx="6" ry="6" x="-26" y="-26" width="52" height="52" class="key side"/>
<rect rx="4" ry="4" x="-20" y="-24" width="40" height="40" class="key"/>
</g>
<g transform="translate(476, 147)" class="key keypos-26">
<rect rx="6" ry="6" x="-26" y="-26" width="52" height="52" class="key side"/>
<rect rx="4" ry="4" x="-20" y="-24" width="40" height="40" class="key"/>
<text x="0" y="-4" class="key tap">N</text>
<text x="0" y="-24" class="key shifted">LSFT+</text>
</g>
<g transform="translate(532, 140)" class="key keypos-27">
<rect rx="6" ry="6" x="-26" y="-26" width="52" height="52" class="key side"/>
<rect rx="4" ry="4" x="-20" y="-24" width="40" height="40" class="key"/>
<text x="0" y="-4" class="key tap">M</text>
<text x="0" y="-24" class="key shifted">LSFT+</text>
</g>
<g transform="translate(588, 147)" class="key keypos-28">
<rect rx="6" ry="6" x="-26" y="-26" width="52" height="52" class="key side"/>
<rect rx="4" ry="4" x="-20" y="-24" width="40" height="40" class="key"/>
</g>
<g transform="translate(644, 154)" class="key keypos-29">
<rect rx="6" ry="6" x="-26" y="-26" width="52" height="52" class="key side"/>
<rect rx="4" ry="4" x="-20" y="-24" width="40" height="40" class="key"/>
</g>
<g transform="translate(168, 210)" class="key keypos-30">
<rect rx="6" ry="6" x="-26" y="-26" width="52" height="52" class="key side"/>
<rect rx="4" ry="4" x="-20" y="-24" width="40" height="40" class="key"/>
<text x="0" y="-4" class="key tap">☰</text>
</g>
<g transform="translate(224, 224)" class="key keypos-31">
<rect rx="6" ry="6" x="-26" y="-26" width="52" height="52" class="key side"/>
<rect rx="4" ry="4" x="-20" y="-24" width="40" height="40" class="key"/>
<text x="0" y="-4" class="key tap">
<tspan x="0" dy="-1.2em">Mouse</tspan><tspan x="0" dy="1.2em">Wheel</tspan><tspan x="0" dy="1.2em">Up</tspan>
</text>
</g>
<g transform="translate(280, 238)" class="key keypos-32">
<rect rx="6" ry="6" x="-26" y="-26" width="52" height="52" class="key side"/>
<rect rx="4" ry="4" x="-20" y="-24" width="40" height="40" class="key"/>
<text x="0" y="-4" class="key tap">
<tspan x="0" dy="-1.2em">Mouse</tspan><tspan x="0" dy="1.2em">Wheel</tspan><tspan x="0" dy="1.2em">Down</tspan>
</text>
</g>
<g transform="translate(392, 238)" class="key keypos-33">
<rect rx="6" ry="6" x="-26" y="-26" width="52" height="52" class="key side"/>
<rect rx="4" ry="4" x="-20" y="-24" width="40" height="40" class="key"/>
<text x="0" y="-4" class="key tap">
<tspan x="0" dy="-0.6em">Page</tspan><tspan x="0" dy="1.2em">Down</tspan>
</text>
</g>
<g transform="translate(448, 224)" class="key keypos-34">
<rect rx="6" ry="6" x="-26" y="-26" width="52" height="52" class="key side"/>
<rect rx="4" ry="4" x="-20" y="-24" width="40" height="40" class="key"/>
<text x="0" y="-4" class="key tap">
<tspan x="0" dy="-0.6em">Page</tspan><tspan x="0" dy="1.2em">Up</tspan>
</text>
</g>
<g transform="translate(504, 210)" class="key keypos-35">
<rect rx="6" ry="6" x="-26" y="-26" width="52" height="52" class="key side"/>
<rect rx="4" ry="4" x="-20" y="-24" width="40" height="40" class="key"/>
<text x="0" y="-4" class="key tap">End</text>
</g>
</g>
</g>
<text x="702.0" y="1316.0" class="footer">Created with <a href="https://github.com/caksoylar/keymap-drawer">keymap-drawer</a></text></svg>
