ISO-10303-21;
HEADER;
/* Generated by software containing ST-Developer
 * from STEP Tools, Inc. (www.steptools.com) 
 */

FILE_DESCRIPTION(
/* description */ (''),
/* implementation_level */ '2;1');

FILE_NAME(
/* name */ 'BoardCoverTest.step',
/* time_stamp */ '2024-09-08T10:36:50-07:00',
/* author */ (''),
/* organization */ (''),
/* preprocessor_version */ 'ST-DEVELOPER v20',
/* originating_system */ 'Autodesk Translation Framework v13.14.0.145',

/* authorisation */ '');

FILE_SCHEMA (('AUTOMOTIVE_DESIGN { 1 0 10303 214 3 1 1 }'));
ENDSEC;

DATA;
#10=MECHANICAL_DESIGN_GEOMETRIC_PRESENTATION_REPRESENTATION('',(#13),#1499);
#11=SHAPE_REPRESENTATION_RELATIONSHIP('SRR','None',#1506,#12);
#12=ADVANCED_BREP_SHAPE_REPRESENTATION('',(#14),#1498);
#13=STYLED_ITEM('',(#1515),#14);
#14=MANIFOLD_SOLID_BREP('Body1',#875);
#15=FACE_BOUND('',#93,.T.);
#16=FACE_BOUND('',#94,.T.);
#17=PLANE('',#895);
#18=PLANE('',#896);
#19=PLANE('',#897);
#20=PLANE('',#905);
#21=PLANE('',#908);
#22=PLANE('',#913);
#23=PLANE('',#919);
#24=PLANE('',#920);
#25=PLANE('',#930);
#26=PLANE('',#931);
#27=PLANE('',#940);
#28=PLANE('',#943);
#29=PLANE('',#950);
#30=PLANE('',#955);
#31=PLANE('',#966);
#32=PLANE('',#967);
#33=PLANE('',#968);
#34=PLANE('',#969);
#35=PLANE('',#970);
#36=PLANE('',#971);
#37=PLANE('',#972);
#38=PLANE('',#973);
#39=PLANE('',#974);
#40=PLANE('',#975);
#41=PLANE('',#976);
#42=FACE_OUTER_BOUND('',#88,.T.);
#43=FACE_OUTER_BOUND('',#89,.T.);
#44=FACE_OUTER_BOUND('',#90,.T.);
#45=FACE_OUTER_BOUND('',#91,.T.);
#46=FACE_OUTER_BOUND('',#92,.T.);
#47=FACE_OUTER_BOUND('',#95,.T.);
#48=FACE_OUTER_BOUND('',#96,.T.);
#49=FACE_OUTER_BOUND('',#97,.T.);
#50=FACE_OUTER_BOUND('',#98,.T.);
#51=FACE_OUTER_BOUND('',#99,.T.);
#52=FACE_OUTER_BOUND('',#100,.T.);
#53=FACE_OUTER_BOUND('',#101,.T.);
#54=FACE_OUTER_BOUND('',#102,.T.);
#55=FACE_OUTER_BOUND('',#103,.T.);
#56=FACE_OUTER_BOUND('',#104,.T.);
#57=FACE_OUTER_BOUND('',#105,.T.);
#58=FACE_OUTER_BOUND('',#106,.T.);
#59=FACE_OUTER_BOUND('',#107,.T.);
#60=FACE_OUTER_BOUND('',#108,.T.);
#61=FACE_OUTER_BOUND('',#109,.T.);
#62=FACE_OUTER_BOUND('',#110,.T.);
#63=FACE_OUTER_BOUND('',#111,.T.);
#64=FACE_OUTER_BOUND('',#112,.T.);
#65=FACE_OUTER_BOUND('',#113,.T.);
#66=FACE_OUTER_BOUND('',#114,.T.);
#67=FACE_OUTER_BOUND('',#115,.T.);
#68=FACE_OUTER_BOUND('',#116,.T.);
#69=FACE_OUTER_BOUND('',#117,.T.);
#70=FACE_OUTER_BOUND('',#118,.T.);
#71=FACE_OUTER_BOUND('',#119,.T.);
#72=FACE_OUTER_BOUND('',#120,.T.);
#73=FACE_OUTER_BOUND('',#121,.T.);
#74=FACE_OUTER_BOUND('',#122,.T.);
#75=FACE_OUTER_BOUND('',#123,.T.);
#76=FACE_OUTER_BOUND('',#124,.T.);
#77=FACE_OUTER_BOUND('',#125,.T.);
#78=FACE_OUTER_BOUND('',#126,.T.);
#79=FACE_OUTER_BOUND('',#127,.T.);
#80=FACE_OUTER_BOUND('',#128,.T.);
#81=FACE_OUTER_BOUND('',#129,.T.);
#82=FACE_OUTER_BOUND('',#130,.T.);
#83=FACE_OUTER_BOUND('',#131,.T.);
#84=FACE_OUTER_BOUND('',#132,.T.);
#85=FACE_OUTER_BOUND('',#133,.T.);
#86=FACE_OUTER_BOUND('',#134,.T.);
#87=FACE_OUTER_BOUND('',#135,.T.);
#88=EDGE_LOOP('',(#556,#557,#558,#559));
#89=EDGE_LOOP('',(#560,#561,#562,#563));
#90=EDGE_LOOP('',(#564,#565,#566,#567));
#91=EDGE_LOOP('',(#568,#569,#570,#571));
#92=EDGE_LOOP('',(#572,#573,#574,#575,#576,#577,#578,#579,#580,#581,#582,
#583,#584,#585));
#93=EDGE_LOOP('',(#586,#587,#588,#589));
#94=EDGE_LOOP('',(#590,#591,#592,#593));
#95=EDGE_LOOP('',(#594,#595,#596,#597));
#96=EDGE_LOOP('',(#598,#599,#600,#601));
#97=EDGE_LOOP('',(#602,#603,#604,#605));
#98=EDGE_LOOP('',(#606,#607,#608,#609));
#99=EDGE_LOOP('',(#610,#611,#612,#613));
#100=EDGE_LOOP('',(#614,#615,#616,#617));
#101=EDGE_LOOP('',(#618,#619,#620,#621,#622,#623,#624,#625));
#102=EDGE_LOOP('',(#626,#627,#628,#629));
#103=EDGE_LOOP('',(#630,#631,#632,#633));
#104=EDGE_LOOP('',(#634,#635,#636,#637));
#105=EDGE_LOOP('',(#638,#639,#640,#641,#642,#643,#644,#645,#646,#647,#648,
#649,#650,#651));
#106=EDGE_LOOP('',(#652,#653,#654,#655));
#107=EDGE_LOOP('',(#656,#657,#658,#659));
#108=EDGE_LOOP('',(#660,#661,#662,#663,#664,#665,#666,#667,#668,#669,#670,
#671,#672,#673));
#109=EDGE_LOOP('',(#674,#675,#676,#677));
#110=EDGE_LOOP('',(#678,#679,#680,#681));
#111=EDGE_LOOP('',(#682,#683,#684,#685));
#112=EDGE_LOOP('',(#686,#687,#688,#689));
#113=EDGE_LOOP('',(#690,#691,#692,#693));
#114=EDGE_LOOP('',(#694,#695,#696,#697));
#115=EDGE_LOOP('',(#698,#699,#700,#701));
#116=EDGE_LOOP('',(#702,#703,#704,#705));
#117=EDGE_LOOP('',(#706,#707,#708,#709));
#118=EDGE_LOOP('',(#710,#711,#712,#713));
#119=EDGE_LOOP('',(#714,#715,#716,#717));
#120=EDGE_LOOP('',(#718,#719,#720,#721));
#121=EDGE_LOOP('',(#722,#723,#724,#725));
#122=EDGE_LOOP('',(#726,#727,#728,#729));
#123=EDGE_LOOP('',(#730,#731,#732,#733));
#124=EDGE_LOOP('',(#734,#735,#736,#737));
#125=EDGE_LOOP('',(#738,#739,#740,#741));
#126=EDGE_LOOP('',(#742,#743,#744,#745));
#127=EDGE_LOOP('',(#746,#747,#748,#749));
#128=EDGE_LOOP('',(#750,#751,#752,#753,#754,#755,#756,#757,#758,#759,#760,
#761,#762,#763));
#129=EDGE_LOOP('',(#764,#765,#766,#767));
#130=EDGE_LOOP('',(#768,#769,#770,#771));
#131=EDGE_LOOP('',(#772,#773,#774,#775));
#132=EDGE_LOOP('',(#776,#777,#778,#779,#780,#781,#782,#783,#784,#785,#786,
#787,#788,#789));
#133=EDGE_LOOP('',(#790,#791,#792,#793));
#134=EDGE_LOOP('',(#794,#795,#796,#797));
#135=EDGE_LOOP('',(#798,#799,#800,#801,#802,#803,#804,#805,#806,#807));
#136=LINE('',#1245,#220);
#137=LINE('',#1248,#221);
#138=LINE('',#1254,#222);
#139=LINE('',#1257,#223);
#140=LINE('',#1259,#224);
#141=LINE('',#1260,#225);
#142=LINE('',#1262,#226);
#143=LINE('',#1265,#227);
#144=LINE('',#1269,#228);
#145=LINE('',#1273,#229);
#146=LINE('',#1277,#230);
#147=LINE('',#1281,#231);
#148=LINE('',#1284,#232);
#149=LINE('',#1287,#233);
#150=LINE('',#1289,#234);
#151=LINE('',#1291,#235);
#152=LINE('',#1292,#236);
#153=LINE('',#1295,#237);
#154=LINE('',#1297,#238);
#155=LINE('',#1299,#239);
#156=LINE('',#1300,#240);
#157=LINE('',#1305,#241);
#158=LINE('',#1306,#242);
#159=LINE('',#1309,#243);
#160=LINE('',#1310,#244);
#161=LINE('',#1315,#245);
#162=LINE('',#1316,#246);
#163=LINE('',#1319,#247);
#164=LINE('',#1320,#248);
#165=LINE('',#1324,#249);
#166=LINE('',#1328,#250);
#167=LINE('',#1331,#251);
#168=LINE('',#1332,#252);
#169=LINE('',#1336,#253);
#170=LINE('',#1342,#254);
#171=LINE('',#1345,#255);
#172=LINE('',#1348,#256);
#173=LINE('',#1350,#257);
#174=LINE('',#1351,#258);
#175=LINE('',#1356,#259);
#176=LINE('',#1358,#260);
#177=LINE('',#1362,#261);
#178=LINE('',#1367,#262);
#179=LINE('',#1371,#263);
#180=LINE('',#1378,#264);
#181=LINE('',#1381,#265);
#182=LINE('',#1384,#266);
#183=LINE('',#1386,#267);
#184=LINE('',#1387,#268);
#185=LINE('',#1392,#269);
#186=LINE('',#1394,#270);
#187=LINE('',#1398,#271);
#188=LINE('',#1403,#272);
#189=LINE('',#1407,#273);
#190=LINE('',#1411,#274);
#191=LINE('',#1414,#275);
#192=LINE('',#1417,#276);
#193=LINE('',#1418,#277);
#194=LINE('',#1423,#278);
#195=LINE('',#1424,#279);
#196=LINE('',#1427,#280);
#197=LINE('',#1428,#281);
#198=LINE('',#1432,#282);
#199=LINE('',#1436,#283);
#200=LINE('',#1440,#284);
#201=LINE('',#1443,#285);
#202=LINE('',#1444,#286);
#203=LINE('',#1450,#287);
#204=LINE('',#1453,#288);
#205=LINE('',#1454,#289);
#206=LINE('',#1460,#290);
#207=LINE('',#1464,#291);
#208=LINE('',#1468,#292);
#209=LINE('',#1471,#293);
#210=LINE('',#1474,#294);
#211=LINE('',#1477,#295);
#212=LINE('',#1478,#296);
#213=LINE('',#1480,#297);
#214=LINE('',#1483,#298);
#215=LINE('',#1486,#299);
#216=LINE('',#1487,#300);
#217=LINE('',#1489,#301);
#218=LINE('',#1492,#302);
#219=LINE('',#1494,#303);
#220=VECTOR('',#983,10.);
#221=VECTOR('',#986,10.);
#222=VECTOR('',#991,10.);
#223=VECTOR('',#994,10.);
#224=VECTOR('',#997,10.);
#225=VECTOR('',#998,10.);
#226=VECTOR('',#1001,10.);
#227=VECTOR('',#1004,10.);
#228=VECTOR('',#1007,10.);
#229=VECTOR('',#1010,10.);
#230=VECTOR('',#1013,10.);
#231=VECTOR('',#1016,10.);
#232=VECTOR('',#1019,10.);
#233=VECTOR('',#1020,10.);
#234=VECTOR('',#1021,10.);
#235=VECTOR('',#1022,10.);
#236=VECTOR('',#1023,10.);
#237=VECTOR('',#1024,10.);
#238=VECTOR('',#1025,10.);
#239=VECTOR('',#1026,10.);
#240=VECTOR('',#1027,10.);
#241=VECTOR('',#1032,10.);
#242=VECTOR('',#1033,10.);
#243=VECTOR('',#1036,10.);
#244=VECTOR('',#1037,10.);
#245=VECTOR('',#1042,10.);
#246=VECTOR('',#1043,10.);
#247=VECTOR('',#1046,10.);
#248=VECTOR('',#1047,10.);
#249=VECTOR('',#1052,10.);
#250=VECTOR('',#1057,10.);
#251=VECTOR('',#1060,10.);
#252=VECTOR('',#1061,10.);
#253=VECTOR('',#1066,10.);
#254=VECTOR('',#1071,10.);
#255=VECTOR('',#1074,10.);
#256=VECTOR('',#1077,10.);
#257=VECTOR('',#1078,10.);
#258=VECTOR('',#1079,10.);
#259=VECTOR('',#1084,10.);
#260=VECTOR('',#1085,10.);
#261=VECTOR('',#1088,10.);
#262=VECTOR('',#1093,10.);
#263=VECTOR('',#1096,10.);
#264=VECTOR('',#1103,10.);
#265=VECTOR('',#1106,10.);
#266=VECTOR('',#1109,10.);
#267=VECTOR('',#1110,10.);
#268=VECTOR('',#1111,10.);
#269=VECTOR('',#1116,10.);
#270=VECTOR('',#1117,10.);
#271=VECTOR('',#1120,10.);
#272=VECTOR('',#1125,10.);
#273=VECTOR('',#1128,10.);
#274=VECTOR('',#1133,10.);
#275=VECTOR('',#1136,10.);
#276=VECTOR('',#1139,10.);
#277=VECTOR('',#1140,10.);
#278=VECTOR('',#1145,10.);
#279=VECTOR('',#1146,10.);
#280=VECTOR('',#1149,10.);
#281=VECTOR('',#1150,10.);
#282=VECTOR('',#1155,0.5);
#283=VECTOR('',#1160,0.5);
#284=VECTOR('',#1165,10.);
#285=VECTOR('',#1168,10.);
#286=VECTOR('',#1169,10.);
#287=VECTOR('',#1178,10.);
#288=VECTOR('',#1181,10.);
#289=VECTOR('',#1182,10.);
#290=VECTOR('',#1191,10.);
#291=VECTOR('',#1196,10.);
#292=VECTOR('',#1201,10.);
#293=VECTOR('',#1204,10.);
#294=VECTOR('',#1209,10.);
#295=VECTOR('',#1212,10.);
#296=VECTOR('',#1213,10.);
#297=VECTOR('',#1216,10.);
#298=VECTOR('',#1221,10.);
#299=VECTOR('',#1224,10.);
#300=VECTOR('',#1225,10.);
#301=VECTOR('',#1228,10.);
#302=VECTOR('',#1233,10.);
#303=VECTOR('',#1236,10.);
#304=CIRCLE('',#890,0.6);
#305=CIRCLE('',#891,0.6);
#306=CIRCLE('',#893,0.6);
#307=CIRCLE('',#894,0.6);
#308=CIRCLE('',#898,3.5);
#309=CIRCLE('',#899,4.);
#310=CIRCLE('',#900,2.5);
#311=CIRCLE('',#901,4.);
#312=CIRCLE('',#902,3.5);
#313=CIRCLE('',#904,4.);
#314=CIRCLE('',#907,2.5);
#315=CIRCLE('',#910,4.);
#316=CIRCLE('',#912,3.5);
#317=CIRCLE('',#915,3.5);
#318=CIRCLE('',#917,0.5);
#319=CIRCLE('',#918,0.5);
#320=CIRCLE('',#921,0.5);
#321=CIRCLE('',#922,0.25);
#322=CIRCLE('',#923,1.);
#323=CIRCLE('',#924,1.);
#324=CIRCLE('',#925,0.5);
#325=CIRCLE('',#926,0.5);
#326=CIRCLE('',#928,0.5);
#327=CIRCLE('',#929,0.5);
#328=CIRCLE('',#932,0.5);
#329=CIRCLE('',#933,0.25);
#330=CIRCLE('',#934,1.);
#331=CIRCLE('',#935,1.);
#332=CIRCLE('',#936,0.5);
#333=CIRCLE('',#937,0.5);
#334=CIRCLE('',#939,0.25);
#335=CIRCLE('',#942,0.25);
#336=CIRCLE('',#945,0.5);
#337=CIRCLE('',#947,0.5);
#338=CIRCLE('',#949,1.);
#339=CIRCLE('',#952,1.);
#340=CIRCLE('',#954,1.);
#341=CIRCLE('',#957,1.);
#342=CIRCLE('',#959,0.5);
#343=CIRCLE('',#961,0.5);
#344=CIRCLE('',#963,0.5);
#345=CIRCLE('',#965,0.5);
#346=VERTEX_POINT('',#1241);
#347=VERTEX_POINT('',#1242);
#348=VERTEX_POINT('',#1244);
#349=VERTEX_POINT('',#1246);
#350=VERTEX_POINT('',#1250);
#351=VERTEX_POINT('',#1251);
#352=VERTEX_POINT('',#1253);
#353=VERTEX_POINT('',#1255);
#354=VERTEX_POINT('',#1264);
#355=VERTEX_POINT('',#1266);
#356=VERTEX_POINT('',#1268);
#357=VERTEX_POINT('',#1270);
#358=VERTEX_POINT('',#1272);
#359=VERTEX_POINT('',#1274);
#360=VERTEX_POINT('',#1276);
#361=VERTEX_POINT('',#1278);
#362=VERTEX_POINT('',#1280);
#363=VERTEX_POINT('',#1282);
#364=VERTEX_POINT('',#1285);
#365=VERTEX_POINT('',#1286);
#366=VERTEX_POINT('',#1288);
#367=VERTEX_POINT('',#1290);
#368=VERTEX_POINT('',#1293);
#369=VERTEX_POINT('',#1294);
#370=VERTEX_POINT('',#1296);
#371=VERTEX_POINT('',#1298);
#372=VERTEX_POINT('',#1302);
#373=VERTEX_POINT('',#1303);
#374=VERTEX_POINT('',#1308);
#375=VERTEX_POINT('',#1312);
#376=VERTEX_POINT('',#1313);
#377=VERTEX_POINT('',#1318);
#378=VERTEX_POINT('',#1322);
#379=VERTEX_POINT('',#1326);
#380=VERTEX_POINT('',#1330);
#381=VERTEX_POINT('',#1334);
#382=VERTEX_POINT('',#1338);
#383=VERTEX_POINT('',#1339);
#384=VERTEX_POINT('',#1341);
#385=VERTEX_POINT('',#1343);
#386=VERTEX_POINT('',#1347);
#387=VERTEX_POINT('',#1349);
#388=VERTEX_POINT('',#1353);
#389=VERTEX_POINT('',#1355);
#390=VERTEX_POINT('',#1357);
#391=VERTEX_POINT('',#1359);
#392=VERTEX_POINT('',#1361);
#393=VERTEX_POINT('',#1364);
#394=VERTEX_POINT('',#1366);
#395=VERTEX_POINT('',#1368);
#396=VERTEX_POINT('',#1370);
#397=VERTEX_POINT('',#1374);
#398=VERTEX_POINT('',#1375);
#399=VERTEX_POINT('',#1377);
#400=VERTEX_POINT('',#1379);
#401=VERTEX_POINT('',#1383);
#402=VERTEX_POINT('',#1385);
#403=VERTEX_POINT('',#1389);
#404=VERTEX_POINT('',#1391);
#405=VERTEX_POINT('',#1393);
#406=VERTEX_POINT('',#1395);
#407=VERTEX_POINT('',#1397);
#408=VERTEX_POINT('',#1400);
#409=VERTEX_POINT('',#1402);
#410=VERTEX_POINT('',#1404);
#411=VERTEX_POINT('',#1406);
#412=VERTEX_POINT('',#1410);
#413=VERTEX_POINT('',#1412);
#414=VERTEX_POINT('',#1416);
#415=VERTEX_POINT('',#1420);
#416=VERTEX_POINT('',#1421);
#417=VERTEX_POINT('',#1426);
#418=VERTEX_POINT('',#1430);
#419=VERTEX_POINT('',#1434);
#420=VERTEX_POINT('',#1438);
#421=VERTEX_POINT('',#1442);
#422=VERTEX_POINT('',#1448);
#423=VERTEX_POINT('',#1452);
#424=VERTEX_POINT('',#1458);
#425=VERTEX_POINT('',#1462);
#426=VERTEX_POINT('',#1466);
#427=VERTEX_POINT('',#1470);
#428=VERTEX_POINT('',#1476);
#429=VERTEX_POINT('',#1485);
#430=EDGE_CURVE('',#346,#347,#304,.T.);
#431=EDGE_CURVE('',#348,#346,#136,.T.);
#432=EDGE_CURVE('',#348,#349,#305,.T.);
#433=EDGE_CURVE('',#349,#347,#137,.T.);
#434=EDGE_CURVE('',#350,#351,#306,.T.);
#435=EDGE_CURVE('',#350,#352,#138,.T.);
#436=EDGE_CURVE('',#352,#353,#307,.T.);
#437=EDGE_CURVE('',#351,#353,#139,.T.);
#438=EDGE_CURVE('',#347,#350,#140,.T.);
#439=EDGE_CURVE('',#346,#351,#141,.T.);
#440=EDGE_CURVE('',#352,#349,#142,.T.);
#441=EDGE_CURVE('',#354,#353,#143,.T.);
#442=EDGE_CURVE('',#355,#354,#308,.T.);
#443=EDGE_CURVE('',#356,#355,#144,.T.);
#444=EDGE_CURVE('',#357,#356,#309,.T.);
#445=EDGE_CURVE('',#358,#357,#145,.T.);
#446=EDGE_CURVE('',#359,#358,#310,.T.);
#447=EDGE_CURVE('',#360,#359,#146,.T.);
#448=EDGE_CURVE('',#361,#360,#311,.T.);
#449=EDGE_CURVE('',#362,#361,#147,.T.);
#450=EDGE_CURVE('',#363,#362,#312,.T.);
#451=EDGE_CURVE('',#348,#363,#148,.T.);
#452=EDGE_CURVE('',#364,#365,#149,.T.);
#453=EDGE_CURVE('',#366,#365,#150,.T.);
#454=EDGE_CURVE('',#366,#367,#151,.T.);
#455=EDGE_CURVE('',#364,#367,#152,.T.);
#456=EDGE_CURVE('',#368,#369,#153,.T.);
#457=EDGE_CURVE('',#370,#369,#154,.T.);
#458=EDGE_CURVE('',#370,#371,#155,.T.);
#459=EDGE_CURVE('',#368,#371,#156,.T.);
#460=EDGE_CURVE('',#372,#373,#313,.T.);
#461=EDGE_CURVE('',#373,#357,#157,.T.);
#462=EDGE_CURVE('',#356,#372,#158,.T.);
#463=EDGE_CURVE('',#374,#355,#159,.T.);
#464=EDGE_CURVE('',#372,#374,#160,.T.);
#465=EDGE_CURVE('',#375,#376,#314,.T.);
#466=EDGE_CURVE('',#376,#359,#161,.T.);
#467=EDGE_CURVE('',#358,#375,#162,.T.);
#468=EDGE_CURVE('',#377,#376,#163,.T.);
#469=EDGE_CURVE('',#360,#377,#164,.T.);
#470=EDGE_CURVE('',#377,#378,#315,.T.);
#471=EDGE_CURVE('',#378,#361,#165,.T.);
#472=EDGE_CURVE('',#379,#374,#316,.T.);
#473=EDGE_CURVE('',#354,#379,#166,.T.);
#474=EDGE_CURVE('',#380,#363,#167,.T.);
#475=EDGE_CURVE('',#379,#380,#168,.T.);
#476=EDGE_CURVE('',#381,#380,#317,.T.);
#477=EDGE_CURVE('',#362,#381,#169,.T.);
#478=EDGE_CURVE('',#382,#383,#318,.T.);
#479=EDGE_CURVE('',#383,#384,#170,.T.);
#480=EDGE_CURVE('',#384,#385,#319,.T.);
#481=EDGE_CURVE('',#385,#382,#171,.T.);
#482=EDGE_CURVE('',#385,#386,#172,.T.);
#483=EDGE_CURVE('',#387,#386,#173,.T.);
#484=EDGE_CURVE('',#382,#387,#174,.T.);
#485=EDGE_CURVE('',#384,#388,#320,.F.);
#486=EDGE_CURVE('',#389,#388,#175,.T.);
#487=EDGE_CURVE('',#389,#390,#176,.T.);
#488=EDGE_CURVE('',#391,#390,#321,.T.);
#489=EDGE_CURVE('',#391,#392,#177,.T.);
#490=EDGE_CURVE('',#369,#392,#322,.T.);
#491=EDGE_CURVE('',#393,#368,#323,.T.);
#492=EDGE_CURVE('',#394,#393,#178,.T.);
#493=EDGE_CURVE('',#395,#394,#324,.T.);
#494=EDGE_CURVE('',#396,#395,#179,.T.);
#495=EDGE_CURVE('',#386,#396,#325,.T.);
#496=EDGE_CURVE('',#397,#398,#326,.T.);
#497=EDGE_CURVE('',#398,#399,#180,.T.);
#498=EDGE_CURVE('',#399,#400,#327,.T.);
#499=EDGE_CURVE('',#400,#397,#181,.T.);
#500=EDGE_CURVE('',#401,#398,#182,.T.);
#501=EDGE_CURVE('',#402,#401,#183,.T.);
#502=EDGE_CURVE('',#399,#402,#184,.T.);
#503=EDGE_CURVE('',#403,#397,#328,.T.);
#504=EDGE_CURVE('',#403,#404,#185,.T.);
#505=EDGE_CURVE('',#404,#405,#186,.T.);
#506=EDGE_CURVE('',#406,#405,#329,.T.);
#507=EDGE_CURVE('',#406,#407,#187,.T.);
#508=EDGE_CURVE('',#365,#407,#330,.T.);
#509=EDGE_CURVE('',#408,#364,#331,.T.);
#510=EDGE_CURVE('',#408,#409,#188,.T.);
#511=EDGE_CURVE('',#410,#409,#332,.T.);
#512=EDGE_CURVE('',#410,#411,#189,.T.);
#513=EDGE_CURVE('',#401,#411,#333,.T.);
#514=EDGE_CURVE('',#405,#412,#190,.T.);
#515=EDGE_CURVE('',#412,#413,#334,.T.);
#516=EDGE_CURVE('',#413,#406,#191,.T.);
#517=EDGE_CURVE('',#413,#414,#192,.T.);
#518=EDGE_CURVE('',#407,#414,#193,.T.);
#519=EDGE_CURVE('',#415,#416,#335,.T.);
#520=EDGE_CURVE('',#416,#391,#194,.T.);
#521=EDGE_CURVE('',#390,#415,#195,.T.);
#522=EDGE_CURVE('',#417,#416,#196,.T.);
#523=EDGE_CURVE('',#392,#417,#197,.T.);
#524=EDGE_CURVE('',#383,#418,#336,.T.);
#525=EDGE_CURVE('',#418,#388,#198,.T.);
#526=EDGE_CURVE('',#419,#400,#337,.F.);
#527=EDGE_CURVE('',#419,#403,#199,.T.);
#528=EDGE_CURVE('',#367,#420,#338,.T.);
#529=EDGE_CURVE('',#420,#408,#200,.T.);
#530=EDGE_CURVE('',#421,#420,#201,.T.);
#531=EDGE_CURVE('',#409,#421,#202,.T.);
#532=EDGE_CURVE('',#414,#366,#339,.T.);
#533=EDGE_CURVE('',#371,#422,#340,.T.);
#534=EDGE_CURVE('',#422,#393,#203,.T.);
#535=EDGE_CURVE('',#423,#422,#204,.T.);
#536=EDGE_CURVE('',#394,#423,#205,.T.);
#537=EDGE_CURVE('',#417,#370,#341,.T.);
#538=EDGE_CURVE('',#423,#424,#342,.T.);
#539=EDGE_CURVE('',#424,#395,#206,.T.);
#540=EDGE_CURVE('',#425,#387,#343,.T.);
#541=EDGE_CURVE('',#396,#425,#207,.T.);
#542=EDGE_CURVE('',#421,#426,#344,.T.);
#543=EDGE_CURVE('',#426,#410,#208,.T.);
#544=EDGE_CURVE('',#411,#427,#209,.T.);
#545=EDGE_CURVE('',#427,#402,#345,.T.);
#546=EDGE_CURVE('',#427,#426,#210,.T.);
#547=EDGE_CURVE('',#428,#404,#211,.T.);
#548=EDGE_CURVE('',#428,#412,#212,.T.);
#549=EDGE_CURVE('',#428,#419,#213,.T.);
#550=EDGE_CURVE('',#425,#424,#214,.T.);
#551=EDGE_CURVE('',#429,#418,#215,.T.);
#552=EDGE_CURVE('',#389,#429,#216,.T.);
#553=EDGE_CURVE('',#415,#429,#217,.T.);
#554=EDGE_CURVE('',#375,#373,#218,.T.);
#555=EDGE_CURVE('',#381,#378,#219,.T.);
#556=ORIENTED_EDGE('',*,*,#430,.F.);
#557=ORIENTED_EDGE('',*,*,#431,.F.);
#558=ORIENTED_EDGE('',*,*,#432,.T.);
#559=ORIENTED_EDGE('',*,*,#433,.T.);
#560=ORIENTED_EDGE('',*,*,#434,.F.);
#561=ORIENTED_EDGE('',*,*,#435,.T.);
#562=ORIENTED_EDGE('',*,*,#436,.T.);
#563=ORIENTED_EDGE('',*,*,#437,.F.);
#564=ORIENTED_EDGE('',*,*,#430,.T.);
#565=ORIENTED_EDGE('',*,*,#438,.T.);
#566=ORIENTED_EDGE('',*,*,#434,.T.);
#567=ORIENTED_EDGE('',*,*,#439,.F.);
#568=ORIENTED_EDGE('',*,*,#433,.F.);
#569=ORIENTED_EDGE('',*,*,#440,.F.);
#570=ORIENTED_EDGE('',*,*,#435,.F.);
#571=ORIENTED_EDGE('',*,*,#438,.F.);
#572=ORIENTED_EDGE('',*,*,#431,.T.);
#573=ORIENTED_EDGE('',*,*,#439,.T.);
#574=ORIENTED_EDGE('',*,*,#437,.T.);
#575=ORIENTED_EDGE('',*,*,#441,.F.);
#576=ORIENTED_EDGE('',*,*,#442,.F.);
#577=ORIENTED_EDGE('',*,*,#443,.F.);
#578=ORIENTED_EDGE('',*,*,#444,.F.);
#579=ORIENTED_EDGE('',*,*,#445,.F.);
#580=ORIENTED_EDGE('',*,*,#446,.F.);
#581=ORIENTED_EDGE('',*,*,#447,.F.);
#582=ORIENTED_EDGE('',*,*,#448,.F.);
#583=ORIENTED_EDGE('',*,*,#449,.F.);
#584=ORIENTED_EDGE('',*,*,#450,.F.);
#585=ORIENTED_EDGE('',*,*,#451,.F.);
#586=ORIENTED_EDGE('',*,*,#452,.T.);
#587=ORIENTED_EDGE('',*,*,#453,.F.);
#588=ORIENTED_EDGE('',*,*,#454,.T.);
#589=ORIENTED_EDGE('',*,*,#455,.F.);
#590=ORIENTED_EDGE('',*,*,#456,.T.);
#591=ORIENTED_EDGE('',*,*,#457,.F.);
#592=ORIENTED_EDGE('',*,*,#458,.T.);
#593=ORIENTED_EDGE('',*,*,#459,.F.);
#594=ORIENTED_EDGE('',*,*,#460,.T.);
#595=ORIENTED_EDGE('',*,*,#461,.T.);
#596=ORIENTED_EDGE('',*,*,#444,.T.);
#597=ORIENTED_EDGE('',*,*,#462,.T.);
#598=ORIENTED_EDGE('',*,*,#462,.F.);
#599=ORIENTED_EDGE('',*,*,#443,.T.);
#600=ORIENTED_EDGE('',*,*,#463,.F.);
#601=ORIENTED_EDGE('',*,*,#464,.F.);
#602=ORIENTED_EDGE('',*,*,#465,.T.);
#603=ORIENTED_EDGE('',*,*,#466,.T.);
#604=ORIENTED_EDGE('',*,*,#446,.T.);
#605=ORIENTED_EDGE('',*,*,#467,.T.);
#606=ORIENTED_EDGE('',*,*,#466,.F.);
#607=ORIENTED_EDGE('',*,*,#468,.F.);
#608=ORIENTED_EDGE('',*,*,#469,.F.);
#609=ORIENTED_EDGE('',*,*,#447,.T.);
#610=ORIENTED_EDGE('',*,*,#470,.T.);
#611=ORIENTED_EDGE('',*,*,#471,.T.);
#612=ORIENTED_EDGE('',*,*,#448,.T.);
#613=ORIENTED_EDGE('',*,*,#469,.T.);
#614=ORIENTED_EDGE('',*,*,#472,.T.);
#615=ORIENTED_EDGE('',*,*,#463,.T.);
#616=ORIENTED_EDGE('',*,*,#442,.T.);
#617=ORIENTED_EDGE('',*,*,#473,.T.);
#618=ORIENTED_EDGE('',*,*,#451,.T.);
#619=ORIENTED_EDGE('',*,*,#474,.F.);
#620=ORIENTED_EDGE('',*,*,#475,.F.);
#621=ORIENTED_EDGE('',*,*,#473,.F.);
#622=ORIENTED_EDGE('',*,*,#441,.T.);
#623=ORIENTED_EDGE('',*,*,#436,.F.);
#624=ORIENTED_EDGE('',*,*,#440,.T.);
#625=ORIENTED_EDGE('',*,*,#432,.F.);
#626=ORIENTED_EDGE('',*,*,#476,.T.);
#627=ORIENTED_EDGE('',*,*,#474,.T.);
#628=ORIENTED_EDGE('',*,*,#450,.T.);
#629=ORIENTED_EDGE('',*,*,#477,.T.);
#630=ORIENTED_EDGE('',*,*,#478,.T.);
#631=ORIENTED_EDGE('',*,*,#479,.T.);
#632=ORIENTED_EDGE('',*,*,#480,.T.);
#633=ORIENTED_EDGE('',*,*,#481,.T.);
#634=ORIENTED_EDGE('',*,*,#481,.F.);
#635=ORIENTED_EDGE('',*,*,#482,.T.);
#636=ORIENTED_EDGE('',*,*,#483,.F.);
#637=ORIENTED_EDGE('',*,*,#484,.F.);
#638=ORIENTED_EDGE('',*,*,#480,.F.);
#639=ORIENTED_EDGE('',*,*,#485,.T.);
#640=ORIENTED_EDGE('',*,*,#486,.F.);
#641=ORIENTED_EDGE('',*,*,#487,.T.);
#642=ORIENTED_EDGE('',*,*,#488,.F.);
#643=ORIENTED_EDGE('',*,*,#489,.T.);
#644=ORIENTED_EDGE('',*,*,#490,.F.);
#645=ORIENTED_EDGE('',*,*,#456,.F.);
#646=ORIENTED_EDGE('',*,*,#491,.F.);
#647=ORIENTED_EDGE('',*,*,#492,.F.);
#648=ORIENTED_EDGE('',*,*,#493,.F.);
#649=ORIENTED_EDGE('',*,*,#494,.F.);
#650=ORIENTED_EDGE('',*,*,#495,.F.);
#651=ORIENTED_EDGE('',*,*,#482,.F.);
#652=ORIENTED_EDGE('',*,*,#496,.T.);
#653=ORIENTED_EDGE('',*,*,#497,.T.);
#654=ORIENTED_EDGE('',*,*,#498,.T.);
#655=ORIENTED_EDGE('',*,*,#499,.T.);
#656=ORIENTED_EDGE('',*,*,#497,.F.);
#657=ORIENTED_EDGE('',*,*,#500,.F.);
#658=ORIENTED_EDGE('',*,*,#501,.F.);
#659=ORIENTED_EDGE('',*,*,#502,.F.);
#660=ORIENTED_EDGE('',*,*,#496,.F.);
#661=ORIENTED_EDGE('',*,*,#503,.F.);
#662=ORIENTED_EDGE('',*,*,#504,.T.);
#663=ORIENTED_EDGE('',*,*,#505,.T.);
#664=ORIENTED_EDGE('',*,*,#506,.F.);
#665=ORIENTED_EDGE('',*,*,#507,.T.);
#666=ORIENTED_EDGE('',*,*,#508,.F.);
#667=ORIENTED_EDGE('',*,*,#452,.F.);
#668=ORIENTED_EDGE('',*,*,#509,.F.);
#669=ORIENTED_EDGE('',*,*,#510,.T.);
#670=ORIENTED_EDGE('',*,*,#511,.F.);
#671=ORIENTED_EDGE('',*,*,#512,.T.);
#672=ORIENTED_EDGE('',*,*,#513,.F.);
#673=ORIENTED_EDGE('',*,*,#500,.T.);
#674=ORIENTED_EDGE('',*,*,#506,.T.);
#675=ORIENTED_EDGE('',*,*,#514,.T.);
#676=ORIENTED_EDGE('',*,*,#515,.T.);
#677=ORIENTED_EDGE('',*,*,#516,.T.);
#678=ORIENTED_EDGE('',*,*,#516,.F.);
#679=ORIENTED_EDGE('',*,*,#517,.T.);
#680=ORIENTED_EDGE('',*,*,#518,.F.);
#681=ORIENTED_EDGE('',*,*,#507,.F.);
#682=ORIENTED_EDGE('',*,*,#519,.T.);
#683=ORIENTED_EDGE('',*,*,#520,.T.);
#684=ORIENTED_EDGE('',*,*,#488,.T.);
#685=ORIENTED_EDGE('',*,*,#521,.T.);
#686=ORIENTED_EDGE('',*,*,#520,.F.);
#687=ORIENTED_EDGE('',*,*,#522,.F.);
#688=ORIENTED_EDGE('',*,*,#523,.F.);
#689=ORIENTED_EDGE('',*,*,#489,.F.);
#690=ORIENTED_EDGE('',*,*,#479,.F.);
#691=ORIENTED_EDGE('',*,*,#524,.T.);
#692=ORIENTED_EDGE('',*,*,#525,.T.);
#693=ORIENTED_EDGE('',*,*,#485,.F.);
#694=ORIENTED_EDGE('',*,*,#499,.F.);
#695=ORIENTED_EDGE('',*,*,#526,.F.);
#696=ORIENTED_EDGE('',*,*,#527,.T.);
#697=ORIENTED_EDGE('',*,*,#503,.T.);
#698=ORIENTED_EDGE('',*,*,#528,.T.);
#699=ORIENTED_EDGE('',*,*,#529,.T.);
#700=ORIENTED_EDGE('',*,*,#509,.T.);
#701=ORIENTED_EDGE('',*,*,#455,.T.);
#702=ORIENTED_EDGE('',*,*,#529,.F.);
#703=ORIENTED_EDGE('',*,*,#530,.F.);
#704=ORIENTED_EDGE('',*,*,#531,.F.);
#705=ORIENTED_EDGE('',*,*,#510,.F.);
#706=ORIENTED_EDGE('',*,*,#508,.T.);
#707=ORIENTED_EDGE('',*,*,#518,.T.);
#708=ORIENTED_EDGE('',*,*,#532,.T.);
#709=ORIENTED_EDGE('',*,*,#453,.T.);
#710=ORIENTED_EDGE('',*,*,#533,.T.);
#711=ORIENTED_EDGE('',*,*,#534,.T.);
#712=ORIENTED_EDGE('',*,*,#491,.T.);
#713=ORIENTED_EDGE('',*,*,#459,.T.);
#714=ORIENTED_EDGE('',*,*,#534,.F.);
#715=ORIENTED_EDGE('',*,*,#535,.F.);
#716=ORIENTED_EDGE('',*,*,#536,.F.);
#717=ORIENTED_EDGE('',*,*,#492,.T.);
#718=ORIENTED_EDGE('',*,*,#490,.T.);
#719=ORIENTED_EDGE('',*,*,#523,.T.);
#720=ORIENTED_EDGE('',*,*,#537,.T.);
#721=ORIENTED_EDGE('',*,*,#457,.T.);
#722=ORIENTED_EDGE('',*,*,#538,.T.);
#723=ORIENTED_EDGE('',*,*,#539,.T.);
#724=ORIENTED_EDGE('',*,*,#493,.T.);
#725=ORIENTED_EDGE('',*,*,#536,.T.);
#726=ORIENTED_EDGE('',*,*,#540,.T.);
#727=ORIENTED_EDGE('',*,*,#483,.T.);
#728=ORIENTED_EDGE('',*,*,#495,.T.);
#729=ORIENTED_EDGE('',*,*,#541,.T.);
#730=ORIENTED_EDGE('',*,*,#511,.T.);
#731=ORIENTED_EDGE('',*,*,#531,.T.);
#732=ORIENTED_EDGE('',*,*,#542,.T.);
#733=ORIENTED_EDGE('',*,*,#543,.T.);
#734=ORIENTED_EDGE('',*,*,#513,.T.);
#735=ORIENTED_EDGE('',*,*,#544,.T.);
#736=ORIENTED_EDGE('',*,*,#545,.T.);
#737=ORIENTED_EDGE('',*,*,#501,.T.);
#738=ORIENTED_EDGE('',*,*,#543,.F.);
#739=ORIENTED_EDGE('',*,*,#546,.F.);
#740=ORIENTED_EDGE('',*,*,#544,.F.);
#741=ORIENTED_EDGE('',*,*,#512,.F.);
#742=ORIENTED_EDGE('',*,*,#514,.F.);
#743=ORIENTED_EDGE('',*,*,#505,.F.);
#744=ORIENTED_EDGE('',*,*,#547,.F.);
#745=ORIENTED_EDGE('',*,*,#548,.T.);
#746=ORIENTED_EDGE('',*,*,#527,.F.);
#747=ORIENTED_EDGE('',*,*,#549,.F.);
#748=ORIENTED_EDGE('',*,*,#547,.T.);
#749=ORIENTED_EDGE('',*,*,#504,.F.);
#750=ORIENTED_EDGE('',*,*,#498,.F.);
#751=ORIENTED_EDGE('',*,*,#502,.T.);
#752=ORIENTED_EDGE('',*,*,#545,.F.);
#753=ORIENTED_EDGE('',*,*,#546,.T.);
#754=ORIENTED_EDGE('',*,*,#542,.F.);
#755=ORIENTED_EDGE('',*,*,#530,.T.);
#756=ORIENTED_EDGE('',*,*,#528,.F.);
#757=ORIENTED_EDGE('',*,*,#454,.F.);
#758=ORIENTED_EDGE('',*,*,#532,.F.);
#759=ORIENTED_EDGE('',*,*,#517,.F.);
#760=ORIENTED_EDGE('',*,*,#515,.F.);
#761=ORIENTED_EDGE('',*,*,#548,.F.);
#762=ORIENTED_EDGE('',*,*,#549,.T.);
#763=ORIENTED_EDGE('',*,*,#526,.T.);
#764=ORIENTED_EDGE('',*,*,#539,.F.);
#765=ORIENTED_EDGE('',*,*,#550,.F.);
#766=ORIENTED_EDGE('',*,*,#541,.F.);
#767=ORIENTED_EDGE('',*,*,#494,.T.);
#768=ORIENTED_EDGE('',*,*,#525,.F.);
#769=ORIENTED_EDGE('',*,*,#551,.F.);
#770=ORIENTED_EDGE('',*,*,#552,.F.);
#771=ORIENTED_EDGE('',*,*,#486,.T.);
#772=ORIENTED_EDGE('',*,*,#521,.F.);
#773=ORIENTED_EDGE('',*,*,#487,.F.);
#774=ORIENTED_EDGE('',*,*,#552,.T.);
#775=ORIENTED_EDGE('',*,*,#553,.F.);
#776=ORIENTED_EDGE('',*,*,#478,.F.);
#777=ORIENTED_EDGE('',*,*,#484,.T.);
#778=ORIENTED_EDGE('',*,*,#540,.F.);
#779=ORIENTED_EDGE('',*,*,#550,.T.);
#780=ORIENTED_EDGE('',*,*,#538,.F.);
#781=ORIENTED_EDGE('',*,*,#535,.T.);
#782=ORIENTED_EDGE('',*,*,#533,.F.);
#783=ORIENTED_EDGE('',*,*,#458,.F.);
#784=ORIENTED_EDGE('',*,*,#537,.F.);
#785=ORIENTED_EDGE('',*,*,#522,.T.);
#786=ORIENTED_EDGE('',*,*,#519,.F.);
#787=ORIENTED_EDGE('',*,*,#553,.T.);
#788=ORIENTED_EDGE('',*,*,#551,.T.);
#789=ORIENTED_EDGE('',*,*,#524,.F.);
#790=ORIENTED_EDGE('',*,*,#461,.F.);
#791=ORIENTED_EDGE('',*,*,#554,.F.);
#792=ORIENTED_EDGE('',*,*,#467,.F.);
#793=ORIENTED_EDGE('',*,*,#445,.T.);
#794=ORIENTED_EDGE('',*,*,#471,.F.);
#795=ORIENTED_EDGE('',*,*,#555,.F.);
#796=ORIENTED_EDGE('',*,*,#477,.F.);
#797=ORIENTED_EDGE('',*,*,#449,.T.);
#798=ORIENTED_EDGE('',*,*,#460,.F.);
#799=ORIENTED_EDGE('',*,*,#464,.T.);
#800=ORIENTED_EDGE('',*,*,#472,.F.);
#801=ORIENTED_EDGE('',*,*,#475,.T.);
#802=ORIENTED_EDGE('',*,*,#476,.F.);
#803=ORIENTED_EDGE('',*,*,#555,.T.);
#804=ORIENTED_EDGE('',*,*,#470,.F.);
#805=ORIENTED_EDGE('',*,*,#468,.T.);
#806=ORIENTED_EDGE('',*,*,#465,.F.);
#807=ORIENTED_EDGE('',*,*,#554,.T.);
#808=CYLINDRICAL_SURFACE('',#889,0.6);
#809=CYLINDRICAL_SURFACE('',#892,0.6);
#810=CYLINDRICAL_SURFACE('',#903,4.);
#811=CYLINDRICAL_SURFACE('',#906,2.5);
#812=CYLINDRICAL_SURFACE('',#909,4.);
#813=CYLINDRICAL_SURFACE('',#911,3.5);
#814=CYLINDRICAL_SURFACE('',#914,3.5);
#815=CYLINDRICAL_SURFACE('',#916,0.5);
#816=CYLINDRICAL_SURFACE('',#927,0.5);
#817=CYLINDRICAL_SURFACE('',#938,0.25);
#818=CYLINDRICAL_SURFACE('',#941,0.25);
#819=CYLINDRICAL_SURFACE('',#944,0.5);
#820=CYLINDRICAL_SURFACE('',#946,0.5);
#821=CYLINDRICAL_SURFACE('',#948,1.);
#822=CYLINDRICAL_SURFACE('',#951,1.);
#823=CYLINDRICAL_SURFACE('',#953,1.);
#824=CYLINDRICAL_SURFACE('',#956,1.);
#825=CYLINDRICAL_SURFACE('',#958,0.5);
#826=CYLINDRICAL_SURFACE('',#960,0.5);
#827=CYLINDRICAL_SURFACE('',#962,0.5);
#828=CYLINDRICAL_SURFACE('',#964,0.5);
#829=ADVANCED_FACE('',(#42),#808,.F.);
#830=ADVANCED_FACE('',(#43),#809,.F.);
#831=ADVANCED_FACE('',(#44),#17,.F.);
#832=ADVANCED_FACE('',(#45),#18,.F.);
#833=ADVANCED_FACE('',(#46,#15,#16),#19,.F.);
#834=ADVANCED_FACE('',(#47),#810,.T.);
#835=ADVANCED_FACE('',(#48),#20,.T.);
#836=ADVANCED_FACE('',(#49),#811,.T.);
#837=ADVANCED_FACE('',(#50),#21,.T.);
#838=ADVANCED_FACE('',(#51),#812,.T.);
#839=ADVANCED_FACE('',(#52),#813,.T.);
#840=ADVANCED_FACE('',(#53),#22,.T.);
#841=ADVANCED_FACE('',(#54),#814,.T.);
#842=ADVANCED_FACE('',(#55),#815,.T.);
#843=ADVANCED_FACE('',(#56),#23,.T.);
#844=ADVANCED_FACE('',(#57),#24,.T.);
#845=ADVANCED_FACE('',(#58),#816,.T.);
#846=ADVANCED_FACE('',(#59),#25,.T.);
#847=ADVANCED_FACE('',(#60),#26,.T.);
#848=ADVANCED_FACE('',(#61),#817,.T.);
#849=ADVANCED_FACE('',(#62),#27,.T.);
#850=ADVANCED_FACE('',(#63),#818,.T.);
#851=ADVANCED_FACE('',(#64),#28,.T.);
#852=ADVANCED_FACE('',(#65),#819,.F.);
#853=ADVANCED_FACE('',(#66),#820,.F.);
#854=ADVANCED_FACE('',(#67),#821,.F.);
#855=ADVANCED_FACE('',(#68),#29,.T.);
#856=ADVANCED_FACE('',(#69),#822,.F.);
#857=ADVANCED_FACE('',(#70),#823,.F.);
#858=ADVANCED_FACE('',(#71),#30,.T.);
#859=ADVANCED_FACE('',(#72),#824,.F.);
#860=ADVANCED_FACE('',(#73),#825,.T.);
#861=ADVANCED_FACE('',(#74),#826,.T.);
#862=ADVANCED_FACE('',(#75),#827,.T.);
#863=ADVANCED_FACE('',(#76),#828,.T.);
#864=ADVANCED_FACE('',(#77),#31,.T.);
#865=ADVANCED_FACE('',(#78),#32,.T.);
#866=ADVANCED_FACE('',(#79),#33,.T.);
#867=ADVANCED_FACE('',(#80),#34,.T.);
#868=ADVANCED_FACE('',(#81),#35,.T.);
#869=ADVANCED_FACE('',(#82),#36,.T.);
#870=ADVANCED_FACE('',(#83),#37,.T.);
#871=ADVANCED_FACE('',(#84),#38,.T.);
#872=ADVANCED_FACE('',(#85),#39,.T.);
#873=ADVANCED_FACE('',(#86),#40,.T.);
#874=ADVANCED_FACE('',(#87),#41,.T.);
#875=CLOSED_SHELL('',(#829,#830,#831,#832,#833,#834,#835,#836,#837,#838,
#839,#840,#841,#842,#843,#844,#845,#846,#847,#848,#849,#850,#851,#852,#853,
#854,#855,#856,#857,#858,#859,#860,#861,#862,#863,#864,#865,#866,#867,#868,
#869,#870,#871,#872,#873,#874));
#876=DERIVED_UNIT_ELEMENT(#878,1.);
#877=DERIVED_UNIT_ELEMENT(#1501,-3.);
#878=(
MASS_UNIT()
NAMED_UNIT(*)
SI_UNIT(.KILO.,.GRAM.)
);
#879=DERIVED_UNIT((#876,#877));
#880=MEASURE_REPRESENTATION_ITEM('density measure',
POSITIVE_RATIO_MEASURE(7850.),#879);
#881=PROPERTY_DEFINITION_REPRESENTATION(#886,#883);
#882=PROPERTY_DEFINITION_REPRESENTATION(#887,#884);
#883=REPRESENTATION('material name',(#885),#1498);
#884=REPRESENTATION('density',(#880),#1498);
#885=DESCRIPTIVE_REPRESENTATION_ITEM('Steel','Steel');
#886=PROPERTY_DEFINITION('material property','material name',#1508);
#887=PROPERTY_DEFINITION('material property','density of part',#1508);
#888=AXIS2_PLACEMENT_3D('',#1239,#977,#978);
#889=AXIS2_PLACEMENT_3D('',#1240,#979,#980);
#890=AXIS2_PLACEMENT_3D('',#1243,#981,#982);
#891=AXIS2_PLACEMENT_3D('',#1247,#984,#985);
#892=AXIS2_PLACEMENT_3D('',#1249,#987,#988);
#893=AXIS2_PLACEMENT_3D('',#1252,#989,#990);
#894=AXIS2_PLACEMENT_3D('',#1256,#992,#993);
#895=AXIS2_PLACEMENT_3D('',#1258,#995,#996);
#896=AXIS2_PLACEMENT_3D('',#1261,#999,#1000);
#897=AXIS2_PLACEMENT_3D('',#1263,#1002,#1003);
#898=AXIS2_PLACEMENT_3D('',#1267,#1005,#1006);
#899=AXIS2_PLACEMENT_3D('',#1271,#1008,#1009);
#900=AXIS2_PLACEMENT_3D('',#1275,#1011,#1012);
#901=AXIS2_PLACEMENT_3D('',#1279,#1014,#1015);
#902=AXIS2_PLACEMENT_3D('',#1283,#1017,#1018);
#903=AXIS2_PLACEMENT_3D('',#1301,#1028,#1029);
#904=AXIS2_PLACEMENT_3D('',#1304,#1030,#1031);
#905=AXIS2_PLACEMENT_3D('',#1307,#1034,#1035);
#906=AXIS2_PLACEMENT_3D('',#1311,#1038,#1039);
#907=AXIS2_PLACEMENT_3D('',#1314,#1040,#1041);
#908=AXIS2_PLACEMENT_3D('',#1317,#1044,#1045);
#909=AXIS2_PLACEMENT_3D('',#1321,#1048,#1049);
#910=AXIS2_PLACEMENT_3D('',#1323,#1050,#1051);
#911=AXIS2_PLACEMENT_3D('',#1325,#1053,#1054);
#912=AXIS2_PLACEMENT_3D('',#1327,#1055,#1056);
#913=AXIS2_PLACEMENT_3D('',#1329,#1058,#1059);
#914=AXIS2_PLACEMENT_3D('',#1333,#1062,#1063);
#915=AXIS2_PLACEMENT_3D('',#1335,#1064,#1065);
#916=AXIS2_PLACEMENT_3D('',#1337,#1067,#1068);
#917=AXIS2_PLACEMENT_3D('',#1340,#1069,#1070);
#918=AXIS2_PLACEMENT_3D('',#1344,#1072,#1073);
#919=AXIS2_PLACEMENT_3D('',#1346,#1075,#1076);
#920=AXIS2_PLACEMENT_3D('',#1352,#1080,#1081);
#921=AXIS2_PLACEMENT_3D('',#1354,#1082,#1083);
#922=AXIS2_PLACEMENT_3D('',#1360,#1086,#1087);
#923=AXIS2_PLACEMENT_3D('',#1363,#1089,#1090);
#924=AXIS2_PLACEMENT_3D('',#1365,#1091,#1092);
#925=AXIS2_PLACEMENT_3D('',#1369,#1094,#1095);
#926=AXIS2_PLACEMENT_3D('',#1372,#1097,#1098);
#927=AXIS2_PLACEMENT_3D('',#1373,#1099,#1100);
#928=AXIS2_PLACEMENT_3D('',#1376,#1101,#1102);
#929=AXIS2_PLACEMENT_3D('',#1380,#1104,#1105);
#930=AXIS2_PLACEMENT_3D('',#1382,#1107,#1108);
#931=AXIS2_PLACEMENT_3D('',#1388,#1112,#1113);
#932=AXIS2_PLACEMENT_3D('',#1390,#1114,#1115);
#933=AXIS2_PLACEMENT_3D('',#1396,#1118,#1119);
#934=AXIS2_PLACEMENT_3D('',#1399,#1121,#1122);
#935=AXIS2_PLACEMENT_3D('',#1401,#1123,#1124);
#936=AXIS2_PLACEMENT_3D('',#1405,#1126,#1127);
#937=AXIS2_PLACEMENT_3D('',#1408,#1129,#1130);
#938=AXIS2_PLACEMENT_3D('',#1409,#1131,#1132);
#939=AXIS2_PLACEMENT_3D('',#1413,#1134,#1135);
#940=AXIS2_PLACEMENT_3D('',#1415,#1137,#1138);
#941=AXIS2_PLACEMENT_3D('',#1419,#1141,#1142);
#942=AXIS2_PLACEMENT_3D('',#1422,#1143,#1144);
#943=AXIS2_PLACEMENT_3D('',#1425,#1147,#1148);
#944=AXIS2_PLACEMENT_3D('',#1429,#1151,#1152);
#945=AXIS2_PLACEMENT_3D('',#1431,#1153,#1154);
#946=AXIS2_PLACEMENT_3D('',#1433,#1156,#1157);
#947=AXIS2_PLACEMENT_3D('',#1435,#1158,#1159);
#948=AXIS2_PLACEMENT_3D('',#1437,#1161,#1162);
#949=AXIS2_PLACEMENT_3D('',#1439,#1163,#1164);
#950=AXIS2_PLACEMENT_3D('',#1441,#1166,#1167);
#951=AXIS2_PLACEMENT_3D('',#1445,#1170,#1171);
#952=AXIS2_PLACEMENT_3D('',#1446,#1172,#1173);
#953=AXIS2_PLACEMENT_3D('',#1447,#1174,#1175);
#954=AXIS2_PLACEMENT_3D('',#1449,#1176,#1177);
#955=AXIS2_PLACEMENT_3D('',#1451,#1179,#1180);
#956=AXIS2_PLACEMENT_3D('',#1455,#1183,#1184);
#957=AXIS2_PLACEMENT_3D('',#1456,#1185,#1186);
#958=AXIS2_PLACEMENT_3D('',#1457,#1187,#1188);
#959=AXIS2_PLACEMENT_3D('',#1459,#1189,#1190);
#960=AXIS2_PLACEMENT_3D('',#1461,#1192,#1193);
#961=AXIS2_PLACEMENT_3D('',#1463,#1194,#1195);
#962=AXIS2_PLACEMENT_3D('',#1465,#1197,#1198);
#963=AXIS2_PLACEMENT_3D('',#1467,#1199,#1200);
#964=AXIS2_PLACEMENT_3D('',#1469,#1202,#1203);
#965=AXIS2_PLACEMENT_3D('',#1472,#1205,#1206);
#966=AXIS2_PLACEMENT_3D('',#1473,#1207,#1208);
#967=AXIS2_PLACEMENT_3D('',#1475,#1210,#1211);
#968=AXIS2_PLACEMENT_3D('',#1479,#1214,#1215);
#969=AXIS2_PLACEMENT_3D('',#1481,#1217,#1218);
#970=AXIS2_PLACEMENT_3D('',#1482,#1219,#1220);
#971=AXIS2_PLACEMENT_3D('',#1484,#1222,#1223);
#972=AXIS2_PLACEMENT_3D('',#1488,#1226,#1227);
#973=AXIS2_PLACEMENT_3D('',#1490,#1229,#1230);
#974=AXIS2_PLACEMENT_3D('',#1491,#1231,#1232);
#975=AXIS2_PLACEMENT_3D('',#1493,#1234,#1235);
#976=AXIS2_PLACEMENT_3D('',#1495,#1237,#1238);
#977=DIRECTION('axis',(0.,0.,1.));
#978=DIRECTION('refdir',(1.,0.,0.));
#979=DIRECTION('center_axis',(-2.46716227694479E-16,0.,1.));
#980=DIRECTION('ref_axis',(-0.707106781186548,0.707106781186547,0.));
#981=DIRECTION('center_axis',(0.,0.,-1.));
#982=DIRECTION('ref_axis',(-0.707106781186548,0.707106781186547,0.));
#983=DIRECTION('',(-2.46716227694479E-16,0.,1.));
#984=DIRECTION('center_axis',(0.,0.,-1.));
#985=DIRECTION('ref_axis',(-0.707106781186548,0.707106781186547,0.));
#986=DIRECTION('',(-2.46716227694479E-16,0.,1.));
#987=DIRECTION('center_axis',(4.93432455388958E-16,0.,-1.));
#988=DIRECTION('ref_axis',(0.707106781186548,0.707106781186547,0.));
#989=DIRECTION('center_axis',(0.,0.,-1.));
#990=DIRECTION('ref_axis',(0.707106781186548,0.707106781186547,0.));
#991=DIRECTION('',(4.93432455388958E-16,0.,-1.));
#992=DIRECTION('center_axis',(0.,0.,-1.));
#993=DIRECTION('ref_axis',(0.707106781186548,0.707106781186547,0.));
#994=DIRECTION('',(4.93432455388958E-16,0.,-1.));
#995=DIRECTION('center_axis',(0.,0.,1.));
#996=DIRECTION('ref_axis',(1.,0.,0.));
#997=DIRECTION('',(1.,0.,0.));
#998=DIRECTION('',(1.,0.,0.));
#999=DIRECTION('center_axis',(0.,1.,0.));
#1000=DIRECTION('ref_axis',(0.,0.,1.));
#1001=DIRECTION('',(-1.,0.,0.));
#1002=DIRECTION('center_axis',(0.,1.,0.));
#1003=DIRECTION('ref_axis',(1.,0.,0.));
#1004=DIRECTION('',(-1.,0.,0.));
#1005=DIRECTION('center_axis',(0.,1.,0.));
#1006=DIRECTION('ref_axis',(0.707106781186548,0.,-0.707106781186548));
#1007=DIRECTION('',(0.,0.,-1.));
#1008=DIRECTION('center_axis',(0.,1.,0.));
#1009=DIRECTION('ref_axis',(0.953716950748227,0.,0.300705799504273));
#1010=DIRECTION('',(0.573576436351045,0.,-0.819152044288992));
#1011=DIRECTION('center_axis',(0.,1.,0.));
#1012=DIRECTION('ref_axis',(0.258819045102521,0.,0.965925826289068));
#1013=DIRECTION('',(0.90630778703665,0.,0.4226182617407));
#1014=DIRECTION('center_axis',(0.,1.,0.));
#1015=DIRECTION('ref_axis',(-0.843391445812886,0.,0.537299608346824));
#1016=DIRECTION('',(2.12516407656523E-33,0.,1.));
#1017=DIRECTION('center_axis',(0.,1.,0.));
#1018=DIRECTION('ref_axis',(-0.707106781186548,0.,-0.707106781186547));
#1019=DIRECTION('',(-1.,0.,0.));
#1020=DIRECTION('',(1.,0.,0.));
#1021=DIRECTION('',(0.,0.,1.));
#1022=DIRECTION('',(-1.,0.,0.));
#1023=DIRECTION('',(0.,0.,-1.));
#1024=DIRECTION('',(-1.,0.,0.));
#1025=DIRECTION('',(0.,0.,-1.));
#1026=DIRECTION('',(1.,0.,0.));
#1027=DIRECTION('',(0.,0.,1.));
#1028=DIRECTION('center_axis',(0.,1.,0.));
#1029=DIRECTION('ref_axis',(0.953716950748227,0.,0.300705799504273));
#1030=DIRECTION('center_axis',(0.,-1.,0.));
#1031=DIRECTION('ref_axis',(0.953716950748227,0.,0.300705799504273));
#1032=DIRECTION('',(0.,-1.,0.));
#1033=DIRECTION('',(0.,1.,0.));
#1034=DIRECTION('center_axis',(1.,0.,0.));
#1035=DIRECTION('ref_axis',(0.,0.,-1.));
#1036=DIRECTION('',(0.,-1.,0.));
#1037=DIRECTION('',(0.,0.,-1.));
#1038=DIRECTION('center_axis',(0.,1.,0.));
#1039=DIRECTION('ref_axis',(0.258819045102521,0.,0.965925826289068));
#1040=DIRECTION('center_axis',(0.,-1.,0.));
#1041=DIRECTION('ref_axis',(0.258819045102521,0.,0.965925826289068));
#1042=DIRECTION('',(0.,-1.,0.));
#1043=DIRECTION('',(0.,1.,0.));
#1044=DIRECTION('center_axis',(-0.4226182617407,0.,0.90630778703665));
#1045=DIRECTION('ref_axis',(0.90630778703665,0.,0.4226182617407));
#1046=DIRECTION('',(0.90630778703665,0.,0.4226182617407));
#1047=DIRECTION('',(0.,1.,0.));
#1048=DIRECTION('center_axis',(0.,1.,0.));
#1049=DIRECTION('ref_axis',(-0.843391445812886,0.,0.537299608346824));
#1050=DIRECTION('center_axis',(0.,-1.,0.));
#1051=DIRECTION('ref_axis',(-0.843391445812886,0.,0.537299608346824));
#1052=DIRECTION('',(0.,-1.,0.));
#1053=DIRECTION('center_axis',(0.,1.,0.));
#1054=DIRECTION('ref_axis',(0.707106781186548,0.,-0.707106781186548));
#1055=DIRECTION('center_axis',(0.,-1.,0.));
#1056=DIRECTION('ref_axis',(0.707106781186548,0.,-0.707106781186548));
#1057=DIRECTION('',(0.,1.,0.));
#1058=DIRECTION('center_axis',(0.,0.,-1.));
#1059=DIRECTION('ref_axis',(-1.,0.,0.));
#1060=DIRECTION('',(0.,-1.,0.));
#1061=DIRECTION('',(-1.,0.,0.));
#1062=DIRECTION('center_axis',(0.,1.,0.));
#1063=DIRECTION('ref_axis',(-0.707106781186548,0.,-0.707106781186547));
#1064=DIRECTION('center_axis',(0.,-1.,0.));
#1065=DIRECTION('ref_axis',(-0.707106781186548,0.,-0.707106781186547));
#1066=DIRECTION('',(0.,1.,0.));
#1067=DIRECTION('center_axis',(0.,0.,1.));
#1068=DIRECTION('ref_axis',(-0.969535971483265,0.24494897427832,0.));
#1069=DIRECTION('center_axis',(0.,0.,-1.));
#1070=DIRECTION('ref_axis',(-0.969535971483265,0.24494897427832,0.));
#1071=DIRECTION('',(0.,0.,-1.));
#1072=DIRECTION('center_axis',(0.,0.,1.));
#1073=DIRECTION('ref_axis',(-0.969535971483265,0.24494897427832,0.));
#1074=DIRECTION('',(0.,0.,1.));
#1075=DIRECTION('center_axis',(-1.,0.,0.));
#1076=DIRECTION('ref_axis',(0.,-1.,0.));
#1077=DIRECTION('',(0.,-1.,0.));
#1078=DIRECTION('',(0.,0.,-1.));
#1079=DIRECTION('',(0.,-1.,0.));
#1080=DIRECTION('center_axis',(0.,0.,-1.));
#1081=DIRECTION('ref_axis',(-1.,0.,0.));
#1082=DIRECTION('center_axis',(0.,0.,-1.));
#1083=DIRECTION('ref_axis',(0.759999999999996,-0.649923072370881,0.));
#1084=DIRECTION('',(0.,-1.,0.));
#1085=DIRECTION('',(-1.,0.,0.));
#1086=DIRECTION('center_axis',(0.,0.,1.));
#1087=DIRECTION('ref_axis',(-0.707106781186552,-0.707106781186543,0.));
#1088=DIRECTION('',(0.,1.,0.));
#1089=DIRECTION('center_axis',(0.,0.,-1.));
#1090=DIRECTION('ref_axis',(0.707106781186546,0.707106781186549,0.));
#1091=DIRECTION('center_axis',(0.,0.,-1.));
#1092=DIRECTION('ref_axis',(-0.707106781186546,0.707106781186549,0.));
#1093=DIRECTION('',(0.,1.,0.));
#1094=DIRECTION('center_axis',(0.,0.,1.));
#1095=DIRECTION('ref_axis',(0.707106781186546,-0.707106781186549,0.));
#1096=DIRECTION('',(1.,0.,0.));
#1097=DIRECTION('center_axis',(0.,0.,1.));
#1098=DIRECTION('ref_axis',(-0.707106781186547,-0.707106781186548,0.));
#1099=DIRECTION('center_axis',(0.,0.,1.));
#1100=DIRECTION('ref_axis',(0.969535971483266,0.244948974278318,0.));
#1101=DIRECTION('center_axis',(0.,0.,-1.));
#1102=DIRECTION('ref_axis',(0.969535971483266,0.244948974278318,0.));
#1103=DIRECTION('',(0.,0.,-1.));
#1104=DIRECTION('center_axis',(0.,0.,1.));
#1105=DIRECTION('ref_axis',(0.969535971483266,0.244948974278318,0.));
#1106=DIRECTION('',(0.,0.,1.));
#1107=DIRECTION('center_axis',(1.,0.,0.));
#1108=DIRECTION('ref_axis',(0.,1.,0.));
#1109=DIRECTION('',(0.,1.,0.));
#1110=DIRECTION('',(0.,0.,1.));
#1111=DIRECTION('',(0.,-1.,0.));
#1112=DIRECTION('center_axis',(0.,0.,1.));
#1113=DIRECTION('ref_axis',(1.,0.,0.));
#1114=DIRECTION('center_axis',(0.,0.,1.));
#1115=DIRECTION('ref_axis',(-0.76,-0.649923072370877,0.));
#1116=DIRECTION('',(0.,1.,0.));
#1117=DIRECTION('',(1.,0.,0.));
#1118=DIRECTION('center_axis',(0.,0.,-1.));
#1119=DIRECTION('ref_axis',(0.707106781186548,-0.707106781186548,0.));
#1120=DIRECTION('',(0.,1.,0.));
#1121=DIRECTION('center_axis',(0.,0.,1.));
#1122=DIRECTION('ref_axis',(-0.707106781186547,0.707106781186548,0.));
#1123=DIRECTION('center_axis',(0.,0.,1.));
#1124=DIRECTION('ref_axis',(0.707106781186547,0.707106781186548,0.));
#1125=DIRECTION('',(0.,-1.,0.));
#1126=DIRECTION('center_axis',(0.,0.,-1.));
#1127=DIRECTION('ref_axis',(-0.707106781186548,-0.707106781186547,0.));
#1128=DIRECTION('',(1.,0.,0.));
#1129=DIRECTION('center_axis',(0.,0.,-1.));
#1130=DIRECTION('ref_axis',(0.707106781186547,-0.707106781186548,0.));
#1131=DIRECTION('center_axis',(0.,0.,1.));
#1132=DIRECTION('ref_axis',(0.707106781186548,-0.707106781186548,0.));
#1133=DIRECTION('',(0.,0.,-1.));
#1134=DIRECTION('center_axis',(0.,0.,1.));
#1135=DIRECTION('ref_axis',(0.707106781186548,-0.707106781186548,0.));
#1136=DIRECTION('',(0.,0.,1.));
#1137=DIRECTION('center_axis',(1.,0.,0.));
#1138=DIRECTION('ref_axis',(0.,1.,0.));
#1139=DIRECTION('',(0.,1.,0.));
#1140=DIRECTION('',(0.,0.,-1.));
#1141=DIRECTION('center_axis',(0.,0.,1.));
#1142=DIRECTION('ref_axis',(-0.707106781186552,-0.707106781186543,0.));
#1143=DIRECTION('center_axis',(0.,0.,-1.));
#1144=DIRECTION('ref_axis',(-0.707106781186552,-0.707106781186543,0.));
#1145=DIRECTION('',(0.,0.,-1.));
#1146=DIRECTION('',(0.,0.,1.));
#1147=DIRECTION('center_axis',(-1.,0.,0.));
#1148=DIRECTION('ref_axis',(0.,-1.,0.));
#1149=DIRECTION('',(0.,-1.,0.));
#1150=DIRECTION('',(0.,0.,1.));
#1151=DIRECTION('center_axis',(0.,0.,1.));
#1152=DIRECTION('ref_axis',(0.759999999999996,-0.649923072370881,0.));
#1153=DIRECTION('center_axis',(0.,0.,1.));
#1154=DIRECTION('ref_axis',(0.759999999999996,-0.649923072370881,0.));
#1155=DIRECTION('',(0.,0.,-1.));
#1156=DIRECTION('center_axis',(0.,0.,-1.));
#1157=DIRECTION('ref_axis',(-0.76,-0.649923072370877,0.));
#1158=DIRECTION('center_axis',(0.,0.,-1.));
#1159=DIRECTION('ref_axis',(-0.76,-0.649923072370877,0.));
#1160=DIRECTION('',(0.,0.,1.));
#1161=DIRECTION('center_axis',(0.,0.,1.));
#1162=DIRECTION('ref_axis',(0.707106781186547,0.707106781186548,0.));
#1163=DIRECTION('center_axis',(0.,0.,-1.));
#1164=DIRECTION('ref_axis',(0.707106781186547,0.707106781186548,0.));
#1165=DIRECTION('',(0.,0.,1.));
#1166=DIRECTION('center_axis',(-1.,0.,0.));
#1167=DIRECTION('ref_axis',(0.,-1.,0.));
#1168=DIRECTION('',(0.,1.,0.));
#1169=DIRECTION('',(0.,0.,-1.));
#1170=DIRECTION('center_axis',(0.,0.,-1.));
#1171=DIRECTION('ref_axis',(-0.707106781186547,0.707106781186548,0.));
#1172=DIRECTION('center_axis',(0.,0.,-1.));
#1173=DIRECTION('ref_axis',(-0.707106781186547,0.707106781186548,0.));
#1174=DIRECTION('center_axis',(0.,0.,-1.));
#1175=DIRECTION('ref_axis',(-0.707106781186546,0.707106781186549,0.));
#1176=DIRECTION('center_axis',(0.,0.,1.));
#1177=DIRECTION('ref_axis',(-0.707106781186546,0.707106781186549,0.));
#1178=DIRECTION('',(0.,0.,-1.));
#1179=DIRECTION('center_axis',(1.,0.,0.));
#1180=DIRECTION('ref_axis',(0.,1.,0.));
#1181=DIRECTION('',(0.,1.,0.));
#1182=DIRECTION('',(0.,0.,1.));
#1183=DIRECTION('center_axis',(0.,0.,1.));
#1184=DIRECTION('ref_axis',(0.707106781186546,0.707106781186549,0.));
#1185=DIRECTION('center_axis',(0.,0.,1.));
#1186=DIRECTION('ref_axis',(0.707106781186546,0.707106781186549,0.));
#1187=DIRECTION('center_axis',(0.,0.,1.));
#1188=DIRECTION('ref_axis',(0.707106781186546,-0.707106781186549,0.));
#1189=DIRECTION('center_axis',(0.,0.,-1.));
#1190=DIRECTION('ref_axis',(0.707106781186546,-0.707106781186549,0.));
#1191=DIRECTION('',(0.,0.,-1.));
#1192=DIRECTION('center_axis',(0.,0.,1.));
#1193=DIRECTION('ref_axis',(-0.707106781186547,-0.707106781186548,0.));
#1194=DIRECTION('center_axis',(0.,0.,-1.));
#1195=DIRECTION('ref_axis',(-0.707106781186547,-0.707106781186548,0.));
#1196=DIRECTION('',(0.,0.,1.));
#1197=DIRECTION('center_axis',(0.,0.,1.));
#1198=DIRECTION('ref_axis',(-0.707106781186548,-0.707106781186547,0.));
#1199=DIRECTION('center_axis',(0.,0.,1.));
#1200=DIRECTION('ref_axis',(-0.707106781186548,-0.707106781186547,0.));
#1201=DIRECTION('',(0.,0.,1.));
#1202=DIRECTION('center_axis',(0.,0.,1.));
#1203=DIRECTION('ref_axis',(0.707106781186547,-0.707106781186548,0.));
#1204=DIRECTION('',(0.,0.,-1.));
#1205=DIRECTION('center_axis',(0.,0.,1.));
#1206=DIRECTION('ref_axis',(0.707106781186547,-0.707106781186548,0.));
#1207=DIRECTION('center_axis',(0.,-1.,0.));
#1208=DIRECTION('ref_axis',(1.,0.,0.));
#1209=DIRECTION('',(-1.,0.,0.));
#1210=DIRECTION('center_axis',(0.,-1.,0.));
#1211=DIRECTION('ref_axis',(1.,0.,0.));
#1212=DIRECTION('',(0.,0.,1.));
#1213=DIRECTION('',(1.,0.,0.));
#1214=DIRECTION('center_axis',(1.,0.,0.));
#1215=DIRECTION('ref_axis',(0.,1.,0.));
#1216=DIRECTION('',(0.,-1.,0.));
#1217=DIRECTION('center_axis',(0.,0.,-1.));
#1218=DIRECTION('ref_axis',(-1.,0.,0.));
#1219=DIRECTION('center_axis',(0.,-1.,0.));
#1220=DIRECTION('ref_axis',(1.,0.,0.));
#1221=DIRECTION('',(1.,0.,0.));
#1222=DIRECTION('center_axis',(-1.,0.,0.));
#1223=DIRECTION('ref_axis',(0.,-1.,0.));
#1224=DIRECTION('',(0.,-1.,0.));
#1225=DIRECTION('',(0.,0.,1.));
#1226=DIRECTION('center_axis',(0.,-1.,0.));
#1227=DIRECTION('ref_axis',(1.,0.,0.));
#1228=DIRECTION('',(1.,0.,0.));
#1229=DIRECTION('center_axis',(0.,0.,1.));
#1230=DIRECTION('ref_axis',(1.,0.,0.));
#1231=DIRECTION('center_axis',(0.819152044288992,0.,0.573576436351045));
#1232=DIRECTION('ref_axis',(0.573576436351045,0.,-0.819152044288992));
#1233=DIRECTION('',(0.573576436351045,0.,-0.819152044288992));
#1234=DIRECTION('center_axis',(-1.,0.,2.12516407656523E-33));
#1235=DIRECTION('ref_axis',(2.12516407656523E-33,0.,1.));
#1236=DIRECTION('',(2.12516407656523E-33,0.,1.));
#1237=DIRECTION('center_axis',(0.,1.,0.));
#1238=DIRECTION('ref_axis',(0.,0.,1.));
#1239=CARTESIAN_POINT('',(0.,0.,0.));
#1240=CARTESIAN_POINT('Origin',(10.1,0.,-55.75));
#1241=CARTESIAN_POINT('',(9.49999999999999,0.,-49.));
#1242=CARTESIAN_POINT('',(10.1,0.6,-49.));
#1243=CARTESIAN_POINT('Origin',(10.1,0.,-49.));
#1244=CARTESIAN_POINT('',(9.49999999999999,0.,-58.));
#1245=CARTESIAN_POINT('',(9.49999999999999,0.,-40.6700810664354));
#1246=CARTESIAN_POINT('',(10.1,0.6,-58.));
#1247=CARTESIAN_POINT('Origin',(10.1,0.,-58.));
#1248=CARTESIAN_POINT('',(10.1,0.6,-55.75));
#1249=CARTESIAN_POINT('Origin',(17.9,0.,-51.25));
#1250=CARTESIAN_POINT('',(17.9,0.6,-49.));
#1251=CARTESIAN_POINT('',(18.5,0.,-49.));
#1252=CARTESIAN_POINT('Origin',(17.9,0.,-49.));
#1253=CARTESIAN_POINT('',(17.9,0.6,-58.));
#1254=CARTESIAN_POINT('',(17.9,0.6,-51.25));
#1255=CARTESIAN_POINT('',(18.5,0.,-58.));
#1256=CARTESIAN_POINT('Origin',(17.9,0.,-58.));
#1257=CARTESIAN_POINT('',(18.5,0.,-36.1700810664354));
#1258=CARTESIAN_POINT('Origin',(9.49999999999999,0.,-49.));
#1259=CARTESIAN_POINT('',(9.49999999999999,0.6,-49.));
#1260=CARTESIAN_POINT('',(11.75,0.,-49.));
#1261=CARTESIAN_POINT('Origin',(14.,0.6,-53.5));
#1262=CARTESIAN_POINT('',(21.,0.6,-58.));
#1263=CARTESIAN_POINT('Origin',(14.,0.,-23.3401621328708));
#1264=CARTESIAN_POINT('',(24.5,0.,-58.));
#1265=CARTESIAN_POINT('',(28.,0.,-58.));
#1266=CARTESIAN_POINT('',(28.,0.,-54.5));
#1267=CARTESIAN_POINT('Origin',(24.5,0.,-54.5));
#1268=CARTESIAN_POINT('',(28.,0.,4.73880484448407));
#1269=CARTESIAN_POINT('',(28.,0.,6.));
#1270=CARTESIAN_POINT('',(27.276608177156,0.,7.03311058988825));
#1271=CARTESIAN_POINT('Origin',(24.,0.,4.73880484448407));
#1272=CARTESIAN_POINT('',(25.4783423905264,0.,9.60130028865579));
#1273=CARTESIAN_POINT('',(24.2751229500411,0.,11.3196757342583));
#1274=CARTESIAN_POINT('',(22.3739166254522,0.,10.4331286653698));
#1275=CARTESIAN_POINT('Origin',(23.4304622798039,0.,8.16735919777818));
#1276=CARTESIAN_POINT('',(2.3095269530372,0.,1.07695010491663));
#1277=CARTESIAN_POINT('',(0.,0.,0.));
#1278=CARTESIAN_POINT('',(-5.41551533006449E-33,0.,-2.54828104322997));
#1279=CARTESIAN_POINT('Origin',(4.,0.,-2.54828104322997));
#1280=CARTESIAN_POINT('',(-1.15821442172805E-31,0.,-54.5));
#1281=CARTESIAN_POINT('',(-1.23259516440783E-31,0.,-58.));
#1282=CARTESIAN_POINT('',(3.5,0.,-58.));
#1283=CARTESIAN_POINT('Origin',(3.5,0.,-54.5));
#1284=CARTESIAN_POINT('',(28.,0.,-58.));
#1285=CARTESIAN_POINT('',(1.05,0.,-3.));
#1286=CARTESIAN_POINT('',(4.75,0.,-3.));
#1287=CARTESIAN_POINT('',(8.45,0.,-3.));
#1288=CARTESIAN_POINT('',(4.75,0.,-56.));
#1289=CARTESIAN_POINT('',(4.75,0.,-39.6700810664354));
#1290=CARTESIAN_POINT('',(1.05,0.,-56.));
#1291=CARTESIAN_POINT('',(8.45,0.,-56.));
#1292=CARTESIAN_POINT('',(1.05,0.,-39.6700810664354));
#1293=CARTESIAN_POINT('',(26.95,0.,-56.));
#1294=CARTESIAN_POINT('',(23.25,0.,-56.));
#1295=CARTESIAN_POINT('',(19.55,0.,-56.));
#1296=CARTESIAN_POINT('',(23.25,0.,-3.));
#1297=CARTESIAN_POINT('',(23.25,0.,-39.6700810664354));
#1298=CARTESIAN_POINT('',(26.95,0.,-3.));
#1299=CARTESIAN_POINT('',(19.55,0.,-3.));
#1300=CARTESIAN_POINT('',(26.95,0.,-39.6700810664354));
#1301=CARTESIAN_POINT('Origin',(24.,0.,4.73880484448407));
#1302=CARTESIAN_POINT('',(28.,1.6,4.73880484448407));
#1303=CARTESIAN_POINT('',(27.276608177156,1.6,7.03311058988825));
#1304=CARTESIAN_POINT('Origin',(24.,1.6,4.73880484448407));
#1305=CARTESIAN_POINT('',(27.276608177156,0.,7.03311058988825));
#1306=CARTESIAN_POINT('',(28.,0.,4.73880484448407));
#1307=CARTESIAN_POINT('Origin',(28.,0.,6.));
#1308=CARTESIAN_POINT('',(28.,1.6,-54.5));
#1309=CARTESIAN_POINT('',(28.,0.,-54.5));
#1310=CARTESIAN_POINT('',(28.,1.6,6.));
#1311=CARTESIAN_POINT('Origin',(23.4304622798039,0.,8.16735919777818));
#1312=CARTESIAN_POINT('',(25.4783423905264,1.6,9.60130028865579));
#1313=CARTESIAN_POINT('',(22.3739166254522,1.6,10.4331286653698));
#1314=CARTESIAN_POINT('Origin',(23.4304622798039,1.6,8.16735919777818));
#1315=CARTESIAN_POINT('',(22.3739166254522,0.,10.4331286653698));
#1316=CARTESIAN_POINT('',(25.4783423905264,0.,9.60130028865579));
#1317=CARTESIAN_POINT('Origin',(0.,0.,0.));
#1318=CARTESIAN_POINT('',(2.3095269530372,1.6,1.07695010491663));
#1319=CARTESIAN_POINT('',(0.,1.6,0.));
#1320=CARTESIAN_POINT('',(2.3095269530372,0.,1.07695010491663));
#1321=CARTESIAN_POINT('Origin',(4.,0.,-2.54828104322997));
#1322=CARTESIAN_POINT('',(-5.41551533006449E-33,1.6,-2.54828104322997));
#1323=CARTESIAN_POINT('Origin',(4.,1.6,-2.54828104322997));
#1324=CARTESIAN_POINT('',(0.,0.,-2.54828104322997));
#1325=CARTESIAN_POINT('Origin',(24.5,0.,-54.5));
#1326=CARTESIAN_POINT('',(24.5,1.6,-58.));
#1327=CARTESIAN_POINT('Origin',(24.5,1.6,-54.5));
#1328=CARTESIAN_POINT('',(24.5,0.,-58.));
#1329=CARTESIAN_POINT('Origin',(28.,0.,-58.));
#1330=CARTESIAN_POINT('',(3.5,1.6,-58.));
#1331=CARTESIAN_POINT('',(3.5,0.,-58.));
#1332=CARTESIAN_POINT('',(28.,1.6,-58.));
#1333=CARTESIAN_POINT('Origin',(3.5,0.,-54.5));
#1334=CARTESIAN_POINT('',(-1.15821442172805E-31,1.6,-54.5));
#1335=CARTESIAN_POINT('Origin',(3.5,1.6,-54.5));
#1336=CARTESIAN_POINT('',(0.,0.,-54.5));
#1337=CARTESIAN_POINT('Origin',(25.13,-4.55001214729608,-56.));
#1338=CARTESIAN_POINT('',(24.63,-4.55001214729608,-3.));
#1339=CARTESIAN_POINT('',(24.69,-4.31252530555532,-3.));
#1340=CARTESIAN_POINT('Origin',(25.13,-4.55001214729608,-3.));
#1341=CARTESIAN_POINT('',(24.69,-4.31252530555532,-56.));
#1342=CARTESIAN_POINT('',(24.69,-4.31252530555532,-56.));
#1343=CARTESIAN_POINT('',(24.63,-4.55001214729608,-56.));
#1344=CARTESIAN_POINT('Origin',(25.13,-4.55001214729608,-56.));
#1345=CARTESIAN_POINT('',(24.63,-4.55001214729608,-56.));
#1346=CARTESIAN_POINT('Origin',(24.63,-4.4,-56.));
#1347=CARTESIAN_POINT('',(24.63,-4.9,-56.));
#1348=CARTESIAN_POINT('',(24.63,-4.4,-56.));
#1349=CARTESIAN_POINT('',(24.63,-4.9,-3.));
#1350=CARTESIAN_POINT('',(24.63,-4.9,-56.));
#1351=CARTESIAN_POINT('',(24.63,-4.4,-3.));
#1352=CARTESIAN_POINT('Origin',(25.1,-2.7,-56.));
#1353=CARTESIAN_POINT('',(24.75,-4.07503846381456,-56.));
#1354=CARTESIAN_POINT('Origin',(24.25,-4.07503846381456,-56.));
#1355=CARTESIAN_POINT('',(24.75,-3.,-56.));
#1356=CARTESIAN_POINT('',(24.75,0.,-56.));
#1357=CARTESIAN_POINT('',(24.5,-3.,-56.));
#1358=CARTESIAN_POINT('',(24.75,-3.,-56.));
#1359=CARTESIAN_POINT('',(24.25,-2.75,-56.));
#1360=CARTESIAN_POINT('Origin',(24.5,-2.75,-56.));
#1361=CARTESIAN_POINT('',(24.25,-1.,-56.));
#1362=CARTESIAN_POINT('',(24.25,-3.,-56.));
#1363=CARTESIAN_POINT('Origin',(23.25,-1.,-56.));
#1364=CARTESIAN_POINT('',(25.95,-1.,-56.));
#1365=CARTESIAN_POINT('Origin',(26.95,-1.,-56.));
#1366=CARTESIAN_POINT('',(25.95,-4.9,-56.));
#1367=CARTESIAN_POINT('',(25.95,-5.4,-56.));
#1368=CARTESIAN_POINT('',(25.45,-5.4,-56.));
#1369=CARTESIAN_POINT('Origin',(25.45,-4.9,-56.));
#1370=CARTESIAN_POINT('',(25.13,-5.4,-56.));
#1371=CARTESIAN_POINT('',(24.75,-5.4,-56.));
#1372=CARTESIAN_POINT('Origin',(25.13,-4.9,-56.));
#1373=CARTESIAN_POINT('Origin',(2.87,-4.55001214729608,-56.));
#1374=CARTESIAN_POINT('',(3.31,-4.31252530555532,-3.));
#1375=CARTESIAN_POINT('',(3.37,-4.55001214729608,-3.));
#1376=CARTESIAN_POINT('Origin',(2.87,-4.55001214729608,-3.));
#1377=CARTESIAN_POINT('',(3.37,-4.55001214729608,-56.));
#1378=CARTESIAN_POINT('',(3.37,-4.55001214729608,-56.));
#1379=CARTESIAN_POINT('',(3.31,-4.31252530555532,-56.));
#1380=CARTESIAN_POINT('Origin',(2.87,-4.55001214729608,-56.));
#1381=CARTESIAN_POINT('',(3.31,-4.31252530555532,-56.));
#1382=CARTESIAN_POINT('Origin',(3.37,-5.4,-56.));
#1383=CARTESIAN_POINT('',(3.37,-4.9,-3.));
#1384=CARTESIAN_POINT('',(3.37,-4.4,-3.));
#1385=CARTESIAN_POINT('',(3.37,-4.9,-56.));
#1386=CARTESIAN_POINT('',(3.37,-4.9,-56.));
#1387=CARTESIAN_POINT('',(3.37,-4.4,-56.));
#1388=CARTESIAN_POINT('Origin',(2.9,-2.7,-3.));
#1389=CARTESIAN_POINT('',(3.25,-4.07503846381456,-3.));
#1390=CARTESIAN_POINT('Origin',(3.75,-4.07503846381456,-3.));
#1391=CARTESIAN_POINT('',(3.25,-3.,-3.));
#1392=CARTESIAN_POINT('',(3.25,0.,-3.));
#1393=CARTESIAN_POINT('',(3.5,-3.,-3.));
#1394=CARTESIAN_POINT('',(3.25,-3.,-3.));
#1395=CARTESIAN_POINT('',(3.75,-2.75,-3.));
#1396=CARTESIAN_POINT('Origin',(3.5,-2.75,-3.));
#1397=CARTESIAN_POINT('',(3.75,-1.,-3.));
#1398=CARTESIAN_POINT('',(3.75,-3.,-3.));
#1399=CARTESIAN_POINT('Origin',(4.75,-1.,-3.));
#1400=CARTESIAN_POINT('',(2.05,-1.,-3.));
#1401=CARTESIAN_POINT('Origin',(1.05,-1.,-3.));
#1402=CARTESIAN_POINT('',(2.05,-4.9,-3.));
#1403=CARTESIAN_POINT('',(2.05,-5.4,-3.));
#1404=CARTESIAN_POINT('',(2.55,-5.4,-3.));
#1405=CARTESIAN_POINT('Origin',(2.55,-4.9,-3.));
#1406=CARTESIAN_POINT('',(2.87,-5.4,-3.));
#1407=CARTESIAN_POINT('',(3.37,-5.4,-3.));
#1408=CARTESIAN_POINT('Origin',(2.87,-4.9,-3.));
#1409=CARTESIAN_POINT('Origin',(3.5,-2.75,-56.));
#1410=CARTESIAN_POINT('',(3.5,-3.,-56.));
#1411=CARTESIAN_POINT('',(3.5,-3.,-56.));
#1412=CARTESIAN_POINT('',(3.75,-2.75,-56.));
#1413=CARTESIAN_POINT('Origin',(3.5,-2.75,-56.));
#1414=CARTESIAN_POINT('',(3.75,-2.75,-56.));
#1415=CARTESIAN_POINT('Origin',(3.75,-3.,-56.));
#1416=CARTESIAN_POINT('',(3.75,-1.,-56.));
#1417=CARTESIAN_POINT('',(3.75,-3.,-56.));
#1418=CARTESIAN_POINT('',(3.75,-1.,-39.6700810664354));
#1419=CARTESIAN_POINT('Origin',(24.5,-2.75,-56.));
#1420=CARTESIAN_POINT('',(24.5,-3.,-3.));
#1421=CARTESIAN_POINT('',(24.25,-2.75,-3.));
#1422=CARTESIAN_POINT('Origin',(24.5,-2.75,-3.));
#1423=CARTESIAN_POINT('',(24.25,-2.75,-56.));
#1424=CARTESIAN_POINT('',(24.5,-3.,-56.));
#1425=CARTESIAN_POINT('Origin',(24.25,0.,-56.));
#1426=CARTESIAN_POINT('',(24.25,-1.,-3.));
#1427=CARTESIAN_POINT('',(24.25,-3.,-3.));
#1428=CARTESIAN_POINT('',(24.25,-1.,-39.6700810664354));
#1429=CARTESIAN_POINT('Origin',(24.25,-4.07503846381456,-56.));
#1430=CARTESIAN_POINT('',(24.75,-4.07503846381456,-3.));
#1431=CARTESIAN_POINT('Origin',(24.25,-4.07503846381456,-3.));
#1432=CARTESIAN_POINT('',(24.75,-4.07503846381456,-56.));
#1433=CARTESIAN_POINT('Origin',(3.75,-4.07503846381456,-56.));
#1434=CARTESIAN_POINT('',(3.25,-4.07503846381456,-56.));
#1435=CARTESIAN_POINT('Origin',(3.75,-4.07503846381456,-56.));
#1436=CARTESIAN_POINT('',(3.25,-4.07503846381456,-56.));
#1437=CARTESIAN_POINT('Origin',(1.05,-1.,-39.6700810664354));
#1438=CARTESIAN_POINT('',(2.05,-1.,-56.));
#1439=CARTESIAN_POINT('Origin',(1.05,-1.,-56.));
#1440=CARTESIAN_POINT('',(2.05,-1.,-39.6700810664354));
#1441=CARTESIAN_POINT('Origin',(2.05,0.,-56.));
#1442=CARTESIAN_POINT('',(2.05,-4.9,-56.));
#1443=CARTESIAN_POINT('',(2.05,-5.4,-56.));
#1444=CARTESIAN_POINT('',(2.05,-4.9,-56.));
#1445=CARTESIAN_POINT('Origin',(4.75,-1.,-39.6700810664354));
#1446=CARTESIAN_POINT('Origin',(4.75,-1.,-56.));
#1447=CARTESIAN_POINT('Origin',(26.95,-1.,-39.6700810664354));
#1448=CARTESIAN_POINT('',(25.95,-1.,-3.));
#1449=CARTESIAN_POINT('Origin',(26.95,-1.,-3.));
#1450=CARTESIAN_POINT('',(25.95,-1.,-39.6700810664354));
#1451=CARTESIAN_POINT('Origin',(25.95,-5.4,-56.));
#1452=CARTESIAN_POINT('',(25.95,-4.9,-3.));
#1453=CARTESIAN_POINT('',(25.95,-5.4,-3.));
#1454=CARTESIAN_POINT('',(25.95,-4.9,-56.));
#1455=CARTESIAN_POINT('Origin',(23.25,-1.,-39.6700810664354));
#1456=CARTESIAN_POINT('Origin',(23.25,-1.,-3.));
#1457=CARTESIAN_POINT('Origin',(25.45,-4.9,-56.));
#1458=CARTESIAN_POINT('',(25.45,-5.4,-3.));
#1459=CARTESIAN_POINT('Origin',(25.45,-4.9,-3.));
#1460=CARTESIAN_POINT('',(25.45,-5.4,-56.));
#1461=CARTESIAN_POINT('Origin',(25.13,-4.9,-56.));
#1462=CARTESIAN_POINT('',(25.13,-5.4,-3.));
#1463=CARTESIAN_POINT('Origin',(25.13,-4.9,-3.));
#1464=CARTESIAN_POINT('',(25.13,-5.4,-56.));
#1465=CARTESIAN_POINT('Origin',(2.55,-4.9,-56.));
#1466=CARTESIAN_POINT('',(2.55,-5.4,-56.));
#1467=CARTESIAN_POINT('Origin',(2.55,-4.9,-56.));
#1468=CARTESIAN_POINT('',(2.55,-5.4,-56.));
#1469=CARTESIAN_POINT('Origin',(2.87,-4.9,-56.));
#1470=CARTESIAN_POINT('',(2.87,-5.4,-56.));
#1471=CARTESIAN_POINT('',(2.87,-5.4,-56.));
#1472=CARTESIAN_POINT('Origin',(2.87,-4.9,-56.));
#1473=CARTESIAN_POINT('Origin',(2.05,-5.4,-56.));
#1474=CARTESIAN_POINT('',(3.37,-5.4,-56.));
#1475=CARTESIAN_POINT('Origin',(3.25,-3.,-56.));
#1476=CARTESIAN_POINT('',(3.25,-3.,-56.));
#1477=CARTESIAN_POINT('',(3.25,-3.,-56.));
#1478=CARTESIAN_POINT('',(3.25,-3.,-56.));
#1479=CARTESIAN_POINT('Origin',(3.25,-4.4,-56.));
#1480=CARTESIAN_POINT('',(3.25,0.,-56.));
#1481=CARTESIAN_POINT('Origin',(2.9,-2.7,-56.));
#1482=CARTESIAN_POINT('Origin',(24.63,-5.4,-56.));
#1483=CARTESIAN_POINT('',(24.75,-5.4,-3.));
#1484=CARTESIAN_POINT('Origin',(24.75,-3.,-56.));
#1485=CARTESIAN_POINT('',(24.75,-3.,-3.));
#1486=CARTESIAN_POINT('',(24.75,0.,-3.));
#1487=CARTESIAN_POINT('',(24.75,-3.,-56.));
#1488=CARTESIAN_POINT('Origin',(24.25,-3.,-56.));
#1489=CARTESIAN_POINT('',(24.75,-3.,-3.));
#1490=CARTESIAN_POINT('Origin',(25.1,-2.7,-3.));
#1491=CARTESIAN_POINT('Origin',(24.2751229500411,0.,11.3196757342583));
#1492=CARTESIAN_POINT('',(24.2751229500411,1.6,11.3196757342583));
#1493=CARTESIAN_POINT('Origin',(-1.23259516440783E-31,0.,-58.));
#1494=CARTESIAN_POINT('',(-1.23259516440783E-31,1.6,-58.));
#1495=CARTESIAN_POINT('Origin',(14.,1.6,-23.3401621328708));
#1496=UNCERTAINTY_MEASURE_WITH_UNIT(LENGTH_MEASURE(0.01),#1500,
'DISTANCE_ACCURACY_VALUE',
'Maximum model space distance between geometric entities at asserted c
onnectivities');
#1497=UNCERTAINTY_MEASURE_WITH_UNIT(LENGTH_MEASURE(0.01),#1500,
'DISTANCE_ACCURACY_VALUE',
'Maximum model space distance between geometric entities at asserted c
onnectivities');
#1498=(
GEOMETRIC_REPRESENTATION_CONTEXT(3)
GLOBAL_UNCERTAINTY_ASSIGNED_CONTEXT((#1496))
GLOBAL_UNIT_ASSIGNED_CONTEXT((#1500,#1502,#1503))
REPRESENTATION_CONTEXT('','3D')
);
#1499=(
GEOMETRIC_REPRESENTATION_CONTEXT(3)
GLOBAL_UNCERTAINTY_ASSIGNED_CONTEXT((#1497))
GLOBAL_UNIT_ASSIGNED_CONTEXT((#1500,#1502,#1503))
REPRESENTATION_CONTEXT('','3D')
);
#1500=(
LENGTH_UNIT()
NAMED_UNIT(*)
SI_UNIT(.MILLI.,.METRE.)
);
#1501=(
LENGTH_UNIT()
NAMED_UNIT(*)
SI_UNIT($,.METRE.)
);
#1502=(
NAMED_UNIT(*)
PLANE_ANGLE_UNIT()
SI_UNIT($,.RADIAN.)
);
#1503=(
NAMED_UNIT(*)
SI_UNIT($,.STERADIAN.)
SOLID_ANGLE_UNIT()
);
#1504=SHAPE_DEFINITION_REPRESENTATION(#1505,#1506);
#1505=PRODUCT_DEFINITION_SHAPE('',$,#1508);
#1506=SHAPE_REPRESENTATION('',(#888),#1498);
#1507=PRODUCT_DEFINITION_CONTEXT('part definition',#1512,'design');
#1508=PRODUCT_DEFINITION('(Unsaved)','(Unsaved)',#1509,#1507);
#1509=PRODUCT_DEFINITION_FORMATION('',$,#1514);
#1510=PRODUCT_RELATED_PRODUCT_CATEGORY('(Unsaved)','(Unsaved)',(#1514));
#1511=APPLICATION_PROTOCOL_DEFINITION('international standard',
'automotive_design',2009,#1512);
#1512=APPLICATION_CONTEXT(
'Core Data for Automotive Mechanical Design Process');
#1513=PRODUCT_CONTEXT('part definition',#1512,'mechanical');
#1514=PRODUCT('(Unsaved)','(Unsaved)',$,(#1513));
#1515=PRESENTATION_STYLE_ASSIGNMENT((#1516));
#1516=SURFACE_STYLE_USAGE(.BOTH.,#1517);
#1517=SURFACE_SIDE_STYLE('',(#1518));
#1518=SURFACE_STYLE_FILL_AREA(#1519);
#1519=FILL_AREA_STYLE('Steel - Satin',(#1520));
#1520=FILL_AREA_STYLE_COLOUR('Steel - Satin',#1521);
#1521=COLOUR_RGB('Steel - Satin',0.627450980392157,0.627450980392157,0.627450980392157);
ENDSEC;
END-ISO-10303-21;
